<?xml version="1.0" encoding="utf-8"?>
<!-- Generator: Adobe Illustrator 22.1.0, SVG Export Plug-In . SVG Version: 6.00 Build 0)  -->

<svg version="1.0" id="Ñëîé_1"  xmlns:i="ns_ai" xmlns:graph="ns_graphs"
	 xmlns="http://www.w3.org/2000/svg" xmlns:xlink="http://www.w3.org/1999/xlink" x="0px" y="0px" viewBox="0 0 600 450"
	 enable-background="new 0 0 600 450" xml:space="preserve">
	 <style type="text/css" media="screen">  
		<![CDATA[  
		g {  
			fill: yellow;  
			stroke: black;  
			stroke-width: 1;
			transition: fill 1s linear 0s;
		}
		g:hover {
			fill: blue;
		}
		]]>  
	</style> 
<metadata>
	<sfw  xmlns="ns_sfw">
		<slices></slices>
		<sliceSourceBounds  bottomLeftOrigin="true" height="450" width="600" x="-75" y="-3407.4"></sliceSourceBounds>
	</sfw>
</metadata>
<g>
	<g>
		<radialGradient id="SVGID_1_" cx="120.5664" cy="241.6878" r="519.3318" gradientUnits="userSpaceOnUse">
			<stop  offset="1.075270e-02" style="stop-color:#2C35A2"/>
			<stop  offset="0.1635" style="stop-color:#252C88"/>
			<stop  offset="0.3975" style="stop-color:#1B2167"/>
			<stop  offset="0.621" style="stop-color:#15194F"/>
			<stop  offset="0.8273" style="stop-color:#101540"/>
			<stop  offset="1" style="stop-color:#0F133B"/>
		</radialGradient>
		<rect fill="url(#SVGID_1_)" width="600" height="450"/>
	</g>
</g>
<g opacity="0.3">
	<g>
		<path fill="#2C75E4" d="M260.5,163.2c-1.1,0-2.2-0.3-3.1-0.8l-6.8-3.9c-0.9-0.5-1.5-1.3-1.5-2c0-0.7,0.4-1.3,1.1-1.7l33-19.1
			c1.4-0.8,3.8-0.7,5.5,0.2l6.8,3.9c0.9,0.5,1.5,1.3,1.5,2c0,0.7-0.4,1.3-1.1,1.7l-33,19.1C262.2,163,261.4,163.2,260.5,163.2z
			 M251,157.6l6.8,3.9c1.3,0.8,3.4,0.9,4.5,0.2l33-19.1c0.3-0.2,0.6-0.5,0.6-0.9c0-0.4-0.4-0.9-1-1.2l-6.8-3.9
			c-1.3-0.8-3.4-0.9-4.5-0.2l-33,19.1c-0.3,0.2-0.6,0.4-0.6,0.9C250.1,156.8,250.4,157.3,251,157.6L251,157.6z"/>
		<path fill="#2C75E4" d="M270.2,210.8c-1.1,0-2.2-0.3-3.1-0.8l-4.2-2.4c-0.9-0.5-1.5-1.3-1.5-2c0-0.7,0.4-1.3,1.1-1.7l16.8-9.7
			c1.4-0.8,3.8-0.7,5.5,0.2l4.2,2.4c0.9,0.5,1.5,1.3,1.5,2c0,0.7-0.4,1.3-1.1,1.7l-16.8,9.7C271.9,210.6,271.1,210.8,270.2,210.8z
			 M281.7,194.5c-0.7,0-1.4,0.1-1.9,0.4l-16.8,9.7c-0.3,0.2-0.6,0.4-0.6,0.9c0,0.4,0.4,0.9,1,1.2l4.2,2.4c1.3,0.8,3.4,0.9,4.5,0.2
			l16.8-9.7c0.3-0.2,0.6-0.4,0.6-0.9c0-0.4-0.4-0.9-1-1.2l-4.2-2.4C283.6,194.8,282.6,194.5,281.7,194.5z"/>
		<path fill="#2C75E4" d="M288.7,227.7c-1,0-2-0.2-2.7-0.7l-90.7-52.4c-0.8-0.5-1.3-1.1-1.3-1.8c0-0.7,0.5-1.4,1.3-1.8l86.4-49.9
			c1.5-0.9,3.9-0.9,5.5,0l53.7,31c0.8,0.5,1.3,1.1,1.3,1.8c0,0.7-0.5,1.4-1.3,1.8l-16.4,9.4c-0.5,0.3-0.8,0.7-0.8,1
			c0,0.4,0.3,0.7,0.8,1l32,18.5c1.2,0.7,3.3,0.7,4.5,0l35.9-20.7c0.5-0.3,0.8-0.7,0.8-1c0-0.4-0.3-0.7-0.8-1L238.5,71.5
			c-1.2-0.7-3.3-0.7-4.5,0l-88.8,51.3c-0.5,0.3-0.8,0.7-0.8,1c0,0.4,0.3,0.7,0.8,1l22.1,12.8l-0.5,0.8l-22.1-12.8
			c-0.8-0.5-1.3-1.1-1.3-1.8c0-0.7,0.5-1.4,1.3-1.8l88.8-51.3c1.5-0.9,3.9-0.9,5.5,0l158.5,91.5c0.8,0.5,1.3,1.1,1.3,1.8
			c0,0.7-0.5,1.4-1.3,1.8l-35.9,20.7c-1.5,0.9-3.9,0.9-5.5,0l-32-18.5c-0.8-0.5-1.3-1.1-1.3-1.8c0-0.7,0.5-1.4,1.3-1.8l16.4-9.4
			c0.5-0.3,0.8-0.7,0.8-1c0-0.4-0.3-0.7-0.8-1l-53.7-31c-1.2-0.7-3.3-0.7-4.5,0l-86.4,49.9c-0.5,0.3-0.8,0.7-0.8,1
			c0,0.4,0.3,0.7,0.8,1l90.7,52.4c1.2,0.7,3.3,0.7,4.5,0l45.1-26c0.5-0.3,0.8-0.7,0.8-1c0-0.4-0.3-0.7-0.8-1l-52.3-30.2
			c-1.2-0.7-3.3-0.7-4.5,0l-22.9,13.2l-0.5-0.8l22.9-13.2c1.5-0.9,3.9-0.9,5.5,0l52.3,30.2c0.8,0.5,1.3,1.1,1.3,1.8
			c0,0.7-0.5,1.4-1.3,1.8l-45.1,26C290.7,227.5,289.7,227.7,288.7,227.7z"/>
		<path fill="#2C75E4" d="M202,138c-1,0-2-0.2-2.7-0.7l-10.5-6.1l54.9-31.7c1.5-0.9,3.9-0.9,5.5,0l7.3,4.2c0.8,0.5,1.3,1.1,1.3,1.8
			c0,0.7-0.5,1.4-1.3,1.9h0l-51.7,29.9C204,137.8,203,138,202,138z M190.6,131.2l9.1,5.3c1.2,0.7,3.3,0.7,4.5,0l51.7-29.9
			c0.5-0.3,0.8-0.7,0.8-1c0-0.4-0.3-0.7-0.8-1l-7.3-4.2c-1.2-0.7-3.3-0.7-4.5,0L190.6,131.2z"/>
		<path fill="#2C75E4" d="M233.1,259.8c-1,0-2-0.2-2.7-0.7l-122.2-70.6c-0.8-0.5-1.3-1.1-1.3-1.8c0-0.7,0.5-1.4,1.3-1.8l70.3-40.6
			l0.5,0.8l-70.3,40.6c-0.5,0.3-0.8,0.7-0.8,1c0,0.4,0.3,0.7,0.8,1l122.2,70.6c1.2,0.7,3.3,0.7,4.5,0l14.3-8.3
			c0.5-0.3,0.8-0.7,0.8-1c0-0.4-0.3-0.7-0.8-1l-19.2-11.1c-1.2-0.7-3.3-0.7-4.5,0l-6.8,4c-1.5,0.9-3.9,0.9-5.5,0l-86.6-50
			c-0.8-0.5-1.3-1.1-1.3-1.8c0-0.7,0.5-1.4,1.3-1.8l5.9-3.4c1.5-0.9,3.9-0.9,5.5,0l77.2,44.5c1.2,0.7,3.3,0.7,4.5,0l15.3-8.8
			c1.5-0.9,3.9-0.9,5.5,0l31.1,17.9l-0.5,0.8l-31.1-17.9c-1.2-0.7-3.3-0.7-4.5,0l-15.3,8.8c-1.5,0.9-3.9,0.9-5.5,0L138,184.6
			c-1.2-0.7-3.3-0.7-4.5,0l-5.9,3.4c-0.5,0.3-0.8,0.7-0.8,1c0,0.4,0.3,0.7,0.8,1l86.6,50c1.2,0.7,3.3,0.7,4.5,0l6.8-4
			c1.5-0.9,3.9-0.9,5.5,0l19.2,11.1c0.8,0.5,1.3,1.1,1.3,1.8c0,0.7-0.5,1.4-1.3,1.8l-14.3,8.3C235.1,259.6,234.1,259.8,233.1,259.8z
			"/>
		<path fill="#2C75E4" d="M215.4,218.8c-1.1,0-2.2-0.3-3.1-0.8l-60.1-34.7c-0.9-0.5-1.5-1.3-1.5-2c0-0.7,0.4-1.3,1.1-1.7l14.2-8.2
			c1.4-0.8,3.8-0.7,5.5,0.2l60.1,34.7c0.9,0.5,1.5,1.3,1.5,2c0,0.7-0.4,1.3-1.1,1.7l-14.2,8.2C217.1,218.6,216.3,218.8,215.4,218.8z
			 M152.6,182.5l60.1,34.7c1.3,0.8,3.4,0.9,4.5,0.2l14.2-8.2c0.3-0.2,0.6-0.4,0.6-0.9c0-0.4-0.4-0.9-1-1.2l-60.1-34.7
			c-1.3-0.8-3.4-0.9-4.5-0.2l-14.2,8.2c-0.3,0.2-0.6,0.4-0.6,0.9C151.7,181.7,152,182.2,152.6,182.5L152.6,182.5z"/>
		<path fill="#2C75E4" d="M99.8,181.4c-1,0-2-0.2-2.7-0.7l-23.9-13.8c-0.8-0.5-1.3-1.1-1.3-1.8s0.5-1.4,1.3-1.8l59.3-34.2l0.5,0.8
			L73.7,164c-0.5,0.3-0.8,0.7-0.8,1s0.3,0.7,0.8,1l23.9,13.8c1.2,0.7,3.3,0.7,4.5,0l55.1-31.8c0.5-0.3,0.8-0.7,0.8-1
			c0-0.4-0.3-0.7-0.8-1l-9.4-5.4c-1.2-0.7-3.3-0.7-4.5,0l-38.6,22.3l-0.5-0.8l38.6-22.3c1.5-0.9,3.9-0.9,5.5,0l9.4,5.4
			c0.8,0.5,1.3,1.1,1.3,1.8c0,0.7-0.5,1.4-1.3,1.8l-55.1,31.8C101.8,181.1,100.8,181.4,99.8,181.4z"/>
		<path fill="#2C75E4" d="M313.1,203.9c-1.1,0-2.2-0.3-3.1-0.8l-4.2-2.4c-0.9-0.5-1.5-1.3-1.5-2c0-0.7,0.4-1.3,1.1-1.7l5-2.9
			c1.4-0.8,3.8-0.7,5.5,0.2l4.2,2.4c0.9,0.5,1.5,1.3,1.5,2c0,0.7-0.4,1.3-1.1,1.7l-5,2.9C314.8,203.7,314,203.9,313.1,203.9z
			 M312.8,194.5c-0.7,0-1.4,0.1-1.9,0.4l-5,2.9c-0.3,0.2-0.6,0.4-0.6,0.9c0,0.4,0.4,0.9,1,1.2l4.2,2.4c1.3,0.8,3.4,0.9,4.5,0.2
			l5-2.9c0.3-0.2,0.6-0.4,0.6-0.9c0-0.4-0.4-0.9-1-1.2l-4.2-2.4C314.6,194.7,313.7,194.5,312.8,194.5z"/>
		<path fill="#2C75E4" d="M297.6,195c-1.1,0-2.2-0.3-3.1-0.8l-4.2-2.4c-0.9-0.5-1.5-1.3-1.5-2c0-0.7,0.4-1.3,1.1-1.7l5-2.9
			c1.4-0.8,3.8-0.7,5.5,0.2l4.2,2.4c0.9,0.5,1.5,1.3,1.5,2c0,0.7-0.4,1.3-1.1,1.7l-5,2.9C299.3,194.8,298.5,195,297.6,195z
			 M297.3,185.5c-0.7,0-1.4,0.1-1.9,0.4l-5,2.9c-0.3,0.2-0.6,0.5-0.6,0.9c0,0.4,0.4,0.9,1,1.2l4.2,2.4c1.3,0.8,3.4,0.9,4.5,0.2
			l5-2.9c0.3-0.2,0.6-0.4,0.6-0.9c0-0.4-0.4-0.9-1-1.2l-4.2-2.4C299.1,185.8,298.2,185.5,297.3,185.5z"/>
		<path fill="#2C75E4" d="M282.1,186c-1.1,0-2.2-0.3-3.1-0.8l-4.2-2.4c-0.9-0.5-1.5-1.3-1.5-2c0-0.7,0.4-1.3,1.1-1.7l5-2.9
			c1.4-0.8,3.8-0.7,5.5,0.2l4.2,2.4c0.9,0.5,1.5,1.3,1.5,2c0,0.7-0.4,1.3-1.1,1.7l-5,2.9C283.8,185.8,283,186,282.1,186z
			 M281.8,176.6c-0.7,0-1.4,0.1-1.9,0.4l-5,2.9c-0.3,0.2-0.6,0.4-0.6,0.9c0,0.4,0.4,0.9,1,1.2l4.2,2.4c1.3,0.8,3.4,0.9,4.5,0.2
			l5-2.9c0.3-0.2,0.6-0.5,0.6-0.9c0-0.4-0.4-0.9-1-1.2l-4.2-2.4C283.7,176.8,282.7,176.6,281.8,176.6z"/>
		<path fill="#2C75E4" d="M297.5,212.9c-1.1,0-2.2-0.3-3.1-0.8l-4.2-2.4c-0.9-0.5-1.5-1.3-1.5-2c0-0.7,0.4-1.3,1.1-1.7l5-2.9
			c1.4-0.8,3.8-0.7,5.5,0.2l4.2,2.4c0.9,0.5,1.5,1.3,1.5,2c0,0.7-0.4,1.3-1.1,1.7l-5,2.9C299.3,212.7,298.4,212.9,297.5,212.9z
			 M297.2,203.5c-0.7,0-1.4,0.1-1.9,0.4l-5,2.9c-0.3,0.2-0.6,0.5-0.6,0.9c0,0.4,0.4,0.9,1,1.2l4.2,2.4c1.3,0.8,3.4,0.9,4.5,0.2
			l5-2.9c0.3-0.2,0.6-0.4,0.6-0.8c0-0.4-0.4-0.9-1-1.2l-4.2-2.4C299.1,203.7,298.1,203.5,297.2,203.5z"/>
		<path fill="#2C75E4" d="M266.5,195c-1.1,0-2.2-0.3-3.1-0.8l-4.2-2.4c-0.9-0.5-1.5-1.3-1.5-2c0-0.7,0.4-1.3,1.1-1.7l5-2.9
			c1.4-0.8,3.8-0.7,5.5,0.2l4.2,2.4c0.9,0.5,1.5,1.3,1.5,2c0,0.7-0.4,1.3-1.1,1.7l-5,2.9C268.3,194.8,267.4,195,266.5,195z
			 M266.2,185.6c-0.7,0-1.4,0.1-1.9,0.4l-5,2.9c-0.3,0.2-0.6,0.5-0.6,0.9c0,0.4,0.4,0.9,1,1.2l4.2,2.4c1.3,0.8,3.4,0.9,4.5,0.2
			l5-2.9c0.3-0.2,0.6-0.4,0.6-0.9c0-0.4-0.4-0.9-1-1.2l-4.2-2.4C268.1,185.8,267.1,185.6,266.2,185.6z"/>
	</g>
	<g>
		<path fill="#2C75E4" d="M397,257c-1.1,0-2.2-0.3-3.1-0.8l-32.3-18.7c-0.9-0.5-1.5-1.3-1.5-2c0-0.7,0.4-1.3,1.1-1.7l7.6-4.4
			c1.4-0.8,3.8-0.7,5.5,0.2l32.3,18.7c0.9,0.5,1.5,1.3,1.5,2c0,0.7-0.4,1.3-1.1,1.7l-7.6,4.4C398.7,256.9,397.9,257,397,257z
			 M371.2,229.9c-0.7,0-1.4,0.1-1.9,0.4l-7.6,4.4c-0.3,0.2-0.6,0.4-0.6,0.9c0,0.4,0.4,0.9,1,1.2l32.3,18.7c1.3,0.8,3.4,0.9,4.5,0.2
			l7.6-4.4c0.3-0.2,0.6-0.4,0.6-0.9c0-0.4-0.4-0.9-1-1.2l-32.3-18.7C373.1,230.1,372.1,229.9,371.2,229.9z"/>
		<path fill="#2C75E4" d="M482,249.9c-1.1,0-2.2-0.3-3.1-0.8l-16.1-9.3c-0.9-0.5-1.5-1.3-1.5-2c0-0.7,0.4-1.3,1.1-1.7l5-2.9
			c1.4-0.8,3.8-0.7,5.5,0.2l16.1,9.3c0.9,0.5,1.5,1.3,1.5,2c0,0.7-0.4,1.3-1.1,1.7l-5,2.9C483.8,249.8,482.9,249.9,482,249.9z
			 M469.9,233.7c-0.7,0-1.4,0.1-1.9,0.4l-5,2.9c-0.3,0.2-0.6,0.4-0.6,0.9c0,0.4,0.4,0.9,1,1.2l16.1,9.3c1.3,0.8,3.4,0.9,4.5,0.2
			l5-2.9c0.3-0.2,0.6-0.4,0.6-0.9c0-0.4-0.4-0.9-1-1.2l-16.1-9.3C471.8,233.9,470.8,233.7,469.9,233.7z"/>
		<path fill="#2C75E4" d="M340.2,318.1c-1,0-2-0.2-2.7-0.7l-88.8-51.3c-0.8-0.5-1.3-1.1-1.3-1.8c0-0.7,0.5-1.4,1.3-1.8L407.1,171
			c1.5-0.9,3.9-0.9,5.5,0l35.9,20.7c0.8,0.5,1.3,1.1,1.3,1.8c0,0.7-0.5,1.4-1.3,1.9l-32,18.5c-1.5,0.9-3.9,0.9-5.5,0l-16.4-9.4
			c-1.2-0.7-3.3-0.7-4.5,0l-53.7,31c-0.5,0.3-0.8,0.7-0.8,1c0,0.4,0.3,0.7,0.8,1l86.4,49.9c1.2,0.7,3.3,0.7,4.5,0l90.7-52.4
			c0.5-0.3,0.8-0.7,0.8-1c0-0.4-0.3-0.7-0.8-1l-45.1-26c-1.2-0.7-3.3-0.7-4.5,0l-52.3,30.2c-0.5,0.3-0.8,0.7-0.8,1
			c0,0.4,0.3,0.7,0.8,1l22.9,13.2l-0.5,0.8L415.7,240c-0.8-0.5-1.3-1.1-1.3-1.9s0.5-1.4,1.3-1.8l52.3-30.2c1.5-0.9,3.9-0.9,5.5,0
			l45.1,26c0.8,0.5,1.3,1.1,1.3,1.8c0,0.7-0.5,1.4-1.3,1.9l-90.7,52.4c-1.5,0.9-3.9,0.9-5.5,0L336,238.3c-0.8-0.5-1.3-1.1-1.3-1.8
			c0-0.7,0.5-1.4,1.3-1.8l53.7-31c1.5-0.9,3.9-0.9,5.5,0l16.4,9.4c1.2,0.7,3.3,0.7,4.5,0l32-18.5c0.5-0.3,0.8-0.7,0.8-1
			c0-0.4-0.3-0.7-0.8-1l-35.9-20.7c-1.2-0.7-3.3-0.7-4.5,0l-158.5,91.5c-0.5,0.3-0.8,0.7-0.8,1c0,0.4,0.3,0.7,0.8,1l88.8,51.3
			c1.2,0.7,3.3,0.7,4.5,0l22.1-12.8l0.5,0.8l-22.1,12.8C342.2,317.9,341.2,318.1,340.2,318.1z"/>
		<path fill="#2C75E4" d="M353.1,291.7l-0.7-0.4l-53.7-31c-0.8-0.5-1.3-1.1-1.3-1.8c0-0.7,0.5-1.4,1.3-1.8l7.3-4.2
			c1.5-0.9,3.9-0.9,5.5,0l51.7,29.9c0.8,0.5,1.3,1.1,1.3,1.8c0,0.7-0.5,1.4-1.3,1.8L353.1,291.7z M308.7,252.6
			c-0.8,0-1.7,0.2-2.3,0.5l-7.3,4.2c-0.5,0.3-0.8,0.7-0.8,1c0,0.4,0.3,0.7,0.8,1l54,31.2l9.6-5.5c0.5-0.3,0.8-0.7,0.8-1
			c0-0.4-0.3-0.7-0.8-1L311,253.1C310.3,252.8,309.5,252.6,308.7,252.6z"/>
		<path fill="#2C75E4" d="M449.2,339.2c-1,0-2-0.2-2.7-0.7l-70.2-40.6l0.5-0.8l70.2,40.6c1.2,0.7,3.3,0.7,4.5,0l122.2-70.6
			c0.5-0.3,0.8-0.7,0.8-1c0-0.4-0.3-0.7-0.8-1l-14.3-8.3c-1.2-0.7-3.3-0.7-4.5,0l-19.2,11.1c-0.5,0.3-0.8,0.7-0.8,1
			c0,0.4,0.3,0.7,0.8,1l6.8,3.9c0.8,0.5,1.3,1.1,1.3,1.8c0,0.7-0.5,1.4-1.3,1.8l-86.6,50c-1.5,0.9-3.9,0.9-5.5,0l-5.9-3.4
			c-0.8-0.5-1.3-1.1-1.3-1.8c0-0.7,0.5-1.4,1.3-1.8l77.2-44.5c0.5-0.3,0.8-0.7,0.8-1c0-0.4-0.3-0.7-0.8-1l-15.3-8.8
			c-0.8-0.5-1.3-1.1-1.3-1.8c0-0.7,0.5-1.4,1.3-1.8l31.1-17.9l0.5,0.8l-31.1,17.9c-0.5,0.3-0.8,0.7-0.8,1c0,0.4,0.3,0.7,0.8,1
			l15.3,8.8c0.8,0.5,1.3,1.1,1.3,1.8c0,0.7-0.5,1.4-1.3,1.8L445,321.3c-0.5,0.3-0.8,0.7-0.8,1c0,0.4,0.3,0.7,0.8,1l5.9,3.4
			c1.2,0.7,3.3,0.7,4.5,0l86.6-50c0.5-0.3,0.8-0.7,0.8-1c0-0.4-0.3-0.7-0.8-1l-6.8-3.9c-0.8-0.5-1.3-1.1-1.3-1.8s0.5-1.4,1.3-1.9
			l19.2-11.1c1.5-0.9,3.9-0.9,5.5,0l14.3,8.3c0.8,0.5,1.3,1.1,1.3,1.8c0,0.7-0.5,1.4-1.3,1.8l-122.2,70.6
			C451.2,338.9,450.2,339.2,449.2,339.2z"/>
		<path fill="#2C75E4" d="M440.1,313.9c-1.1,0-2.2-0.3-3.1-0.8l-13.5-7.8c-0.9-0.5-1.5-1.3-1.5-2c0-0.7,0.4-1.3,1.1-1.7l60.8-35.1
			c1.4-0.8,3.8-0.7,5.5,0.2l13.5,7.8c0.9,0.5,1.5,1.3,1.5,2c0,0.7-0.4,1.3-1.1,1.7l-60.8,35.1C441.8,313.7,441,313.9,440.1,313.9z
			 M486.4,266.8c-0.7,0-1.4,0.1-1.9,0.4l-60.8,35.1c-0.3,0.2-0.6,0.4-0.6,0.8c0,0.4,0.4,0.9,1,1.2l13.5,7.8c1.3,0.8,3.4,0.9,4.5,0.2
			l60.8-35.1c0.3-0.2,0.6-0.5,0.6-0.9c0-0.4-0.4-0.9-1-1.2l-13.5-7.8C488.3,267,487.3,266.8,486.4,266.8z"/>
		<path fill="#2C75E4" d="M411.7,359.3c-1,0-2-0.2-2.7-0.7l-59.3-34.2l0.5-0.8l59.3,34.2c1.2,0.7,3.3,0.7,4.5,0l23.9-13.8
			c0.5-0.3,0.8-0.7,0.8-1s-0.3-0.7-0.8-1l-55.1-31.8c-1.2-0.7-3.3-0.7-4.5,0l-9.4,5.5c-0.5,0.3-0.8,0.7-0.8,1c0,0.4,0.3,0.7,0.8,1
			l38.6,22.3l-0.5,0.8l-38.6-22.3c-0.8-0.5-1.3-1.1-1.3-1.8c0-0.7,0.5-1.4,1.3-1.8l9.4-5.5c1.5-0.9,3.9-0.9,5.5,0l55.1,31.8
			c0.8,0.5,1.3,1.1,1.3,1.8s-0.5,1.4-1.3,1.8l-23.9,13.8C413.6,359.1,412.7,359.3,411.7,359.3z"/>
		<path fill="#2C75E4" d="M470.1,225.2c-1.1,0-2.2-0.3-3.1-0.8l-4.2-2.4c-0.9-0.5-1.5-1.3-1.5-2c0-0.7,0.4-1.3,1.1-1.7l5-2.9
			c1.4-0.8,3.8-0.7,5.5,0.2l4.2,2.4c0.9,0.5,1.5,1.3,1.5,2c0,0.7-0.4,1.3-1.1,1.7l-5,2.9C471.9,225,471,225.2,470.1,225.2z
			 M469.8,215.8c-0.7,0-1.4,0.1-1.9,0.4l-5,2.9c-0.3,0.2-0.6,0.4-0.6,0.9c0,0.4,0.4,0.9,1,1.2l4.2,2.4c1.3,0.8,3.4,0.9,4.5,0.2
			l5-2.9c0.3-0.2,0.6-0.4,0.6-0.9c0-0.4-0.4-0.9-1-1.2l-4.2-2.4C471.7,216,470.7,215.8,469.8,215.8z"/>
		<path fill="#2C75E4" d="M454.6,234.1c-1.1,0-2.2-0.3-3.1-0.8l-4.2-2.4c-0.9-0.5-1.5-1.3-1.5-2c0-0.7,0.4-1.3,1.1-1.7l5-2.9
			c1.4-0.8,3.8-0.7,5.5,0.2l4.2,2.4c0.9,0.5,1.5,1.3,1.5,2c0,0.7-0.4,1.3-1.1,1.7l-5,2.9C456.4,233.9,455.5,234.1,454.6,234.1z
			 M454.3,224.7c-0.7,0-1.4,0.1-1.9,0.4l-5,2.9c-0.3,0.2-0.6,0.4-0.6,0.9c0,0.4,0.4,0.9,1,1.2l4.2,2.4c1.3,0.8,3.4,0.9,4.5,0.2
			l5-2.9c0.3-0.2,0.6-0.5,0.6-0.9c0-0.4-0.4-0.9-1-1.2l-4.2-2.4C456.2,224.9,455.2,224.7,454.3,224.7z"/>
		<path fill="#2C75E4" d="M439.1,243.1c-1.1,0-2.2-0.3-3.1-0.8l-4.2-2.4c-0.9-0.5-1.5-1.3-1.5-2c0-0.7,0.4-1.3,1.1-1.7l5-2.9
			c1.4-0.8,3.8-0.7,5.5,0.2l4.2,2.4c0.9,0.5,1.5,1.3,1.5,2c0,0.7-0.4,1.3-1.1,1.7l-5,2.9C440.9,242.9,440,243.1,439.1,243.1z
			 M438.8,233.7c-0.7,0-1.4,0.1-1.9,0.4l-5,2.9c-0.3,0.2-0.6,0.4-0.6,0.8c0,0.4,0.4,0.9,1,1.2l4.2,2.4c1.3,0.8,3.4,0.9,4.5,0.2
			l5-2.9c0.3-0.2,0.6-0.4,0.6-0.9c0-0.4-0.4-0.9-1-1.2l-4.2-2.4C440.7,233.9,439.8,233.7,438.8,233.7z"/>
		<path fill="#2C75E4" d="M485.7,234.2c-1.1,0-2.2-0.3-3.1-0.8l-4.2-2.4c-0.9-0.5-1.5-1.3-1.5-2c0-0.7,0.4-1.3,1.1-1.7l5-2.9
			c1.4-0.8,3.8-0.7,5.5,0.2l4.2,2.4c0.9,0.5,1.5,1.3,1.5,2c0,0.7-0.4,1.3-1.1,1.7l-5,2.9C487.5,234,486.6,234.2,485.7,234.2z
			 M485.4,224.8c-0.7,0-1.4,0.1-1.9,0.4l-5,2.9c-0.3,0.2-0.6,0.5-0.6,0.9c0,0.4,0.4,0.9,1,1.2l4.2,2.4c1.3,0.8,3.4,0.9,4.5,0.2
			l5-2.9c0.3-0.2,0.6-0.4,0.6-0.9c0-0.4-0.4-0.9-1-1.2l-4.2-2.4C487.3,225,486.3,224.8,485.4,224.8z"/>
		<path fill="#2C75E4" d="M454.7,252.1c-1.1,0-2.2-0.3-3.1-0.8l-4.2-2.4c-0.9-0.5-1.5-1.3-1.5-2c0-0.7,0.4-1.3,1.1-1.7l5-2.9
			c1.4-0.8,3.8-0.7,5.5,0.2l4.2,2.4c0.9,0.5,1.5,1.3,1.5,2c0,0.7-0.4,1.3-1.1,1.7l-5,2.9C456.5,251.9,455.6,252.1,454.7,252.1z
			 M454.4,242.6c-0.7,0-1.4,0.1-1.9,0.4l-5,2.9c-0.3,0.2-0.6,0.5-0.6,0.9c0,0.4,0.4,0.9,1,1.2l4.2,2.4c1.3,0.8,3.4,0.9,4.5,0.2
			l5-2.9c0.3-0.2,0.6-0.4,0.6-0.9c0-0.4-0.4-0.9-1-1.2l-4.2-2.4C456.3,242.9,455.3,242.6,454.4,242.6z"/>
	</g>
</g>
<radialGradient id="SVGID_2_" cx="-2602.0781" cy="136.7905" r="95.2597" gradientTransform="matrix(0.866 0.5 -0.866 0.5 2806.3857 1509.7166)" gradientUnits="userSpaceOnUse">
	<stop  offset="1.075270e-02" style="stop-color:#25BFEC"/>
	<stop  offset="4.534507e-02" style="stop-color:#24B4E1"/>
	<stop  offset="0.2186" style="stop-color:#1F83B0"/>
	<stop  offset="0.3902" style="stop-color:#1B5A86"/>
	<stop  offset="0.5567" style="stop-color:#173A66"/>
	<stop  offset="0.7168" style="stop-color:#152350"/>
	<stop  offset="0.8678" style="stop-color:#131642"/>
	<stop  offset="1" style="stop-color:#13113D"/>
</radialGradient>
<ellipse opacity="0.4" fill="url(#SVGID_2_)" cx="434.5" cy="277.1" rx="116.7" ry="67.4"/>
<radialGradient id="SVGID_3_" cx="-2534.0508" cy="260.273" r="44.6742" gradientTransform="matrix(0.866 0.5 -0.866 0.5 2806.3857 1509.7166)" gradientUnits="userSpaceOnUse">
	<stop  offset="1.075270e-02" style="stop-color:#25BFEC"/>
	<stop  offset="4.534507e-02" style="stop-color:#24B4E1"/>
	<stop  offset="0.2186" style="stop-color:#1F83B0"/>
	<stop  offset="0.3902" style="stop-color:#1B5A86"/>
	<stop  offset="0.5567" style="stop-color:#173A66"/>
	<stop  offset="0.7168" style="stop-color:#152350"/>
	<stop  offset="0.8678" style="stop-color:#131642"/>
	<stop  offset="1" style="stop-color:#13113D"/>
</radialGradient>
<ellipse opacity="0.4" fill="url(#SVGID_3_)" cx="386.5" cy="372.8" rx="54.7" ry="31.6"/>
<radialGradient id="SVGID_4_" cx="-2562.9182" cy="286.6062" r="44.6741" gradientTransform="matrix(0.866 0.5 -0.866 0.5 2806.3857 1509.7166)" gradientUnits="userSpaceOnUse">
	<stop  offset="1.075270e-02" style="stop-color:#D4088C"/>
	<stop  offset="9.577888e-02" style="stop-color:#B70980"/>
	<stop  offset="0.2598" style="stop-color:#860C6C"/>
	<stop  offset="0.4224" style="stop-color:#5C0E5B"/>
	<stop  offset="0.5801" style="stop-color:#3C0F4E"/>
	<stop  offset="0.7318" style="stop-color:#261045"/>
	<stop  offset="0.8748" style="stop-color:#18113F"/>
	<stop  offset="1" style="stop-color:#13113D"/>
</radialGradient>
<ellipse opacity="0.4" fill="url(#SVGID_4_)" cx="338.7" cy="371.6" rx="54.7" ry="31.6"/>
<radialGradient id="SVGID_5_" cx="-2750.0291" cy="190.0455" r="95.2597" gradientTransform="matrix(0.866 0.5 -0.866 0.5 2806.3857 1509.7166)" gradientUnits="userSpaceOnUse">
	<stop  offset="1.075270e-02" style="stop-color:#D4088C"/>
	<stop  offset="9.577888e-02" style="stop-color:#B70980"/>
	<stop  offset="0.2598" style="stop-color:#860C6C"/>
	<stop  offset="0.4224" style="stop-color:#5C0E5B"/>
	<stop  offset="0.5801" style="stop-color:#3C0F4E"/>
	<stop  offset="0.7318" style="stop-color:#261045"/>
	<stop  offset="0.8748" style="stop-color:#18113F"/>
	<stop  offset="1" style="stop-color:#13113D"/>
</radialGradient>
<ellipse opacity="0.4" fill="url(#SVGID_5_)" cx="260.3" cy="229.7" rx="116.7" ry="67.4"/>
<g>
	<path fill="#6EE8FC" d="M242.6,281.6c-2.2,0-4.4-0.5-6.1-1.5l-61.1-35.3c-1.7-1-2.7-2.4-2.7-3.8s1-2.8,2.7-3.8l93.7-54.1
		c1.4-0.8,2.2-1.9,2.2-2.9c0-1.1-0.8-2.1-2.2-2.9l-24.4-14.1l0.5-0.9l24.4,14.1c1.7,1,2.7,2.4,2.7,3.8c0,1.5-1,2.8-2.7,3.8
		l-93.7,54.1c-1.4,0.8-2.2,1.9-2.2,2.9c0,1.1,0.8,2.1,2.2,2.9l61.1,35.3c3.1,1.8,8.1,1.8,11.2,0l24-13.9l0.5,0.9l-24,13.9
		C247.1,281.1,244.8,281.6,242.6,281.6z"/>
	<path fill="#6EE8FC" d="M379.3,362.3l-0.5-0.9l81.5-47.1c1.7-1,2.6-2.2,2.6-3.5s-0.9-2.6-2.6-3.5l-34-19.7l0.5-0.9l34,19.7
		c2,1.2,3.1,2.7,3.1,4.4s-1.1,3.3-3.1,4.4L379.3,362.3z"/>
	<path fill="#6EE8FC" d="M508.3,285.5c-2.4,0-4.9-0.5-6.7-1.6L467.1,264l0.5-0.9l34.4,19.9c3.4,2,9,2,12.5,0l42.9-24.8
		c1.6-0.9,2.4-2.1,2.4-3.3c0-1.2-0.9-2.4-2.4-3.3l-150.1-86.7c-1.9-1.1-2.9-2.6-2.9-4.2c0-1.6,1-3.1,2.9-4.2l24.2-14l0.5,0.9
		l-24.2,14c-1.6,0.9-2.4,2.1-2.4,3.3s0.9,2.4,2.4,3.3L558,250.8c1.9,1.1,2.9,2.6,2.9,4.2c0,1.6-1,3.1-2.9,4.2l-42.9,24.8
		C513.2,285,510.8,285.5,508.3,285.5z"/>
	<path fill="#6EE8FC" d="M367.5,318.8c-2.7,0-5.2-0.5-7.1-1.6l-107.5-62.1c-1.9-1.1-3-2.7-3-4.4c0-2,1.5-4.1,4.1-5.6l105.2-60.8
		c4.8-2.8,12.1-3.1,16.3-0.7l107.5,62.1c1.9,1.1,3,2.7,3,4.4c0,2-1.5,4.1-4.1,5.6l-105.2,60.8C374.1,318,370.7,318.8,367.5,318.8z
		 M360.9,316.3c3.9,2.3,10.8,2,15.3-0.7l105.2-60.8c2.3-1.3,3.6-3.1,3.6-4.7c0-1.4-0.9-2.6-2.5-3.5l-107.5-62.1
		c-3.9-2.3-10.8-2-15.3,0.7L254.5,246c-2.3,1.3-3.6,3.1-3.6,4.7c0,1.4,0.9,2.6,2.5,3.5L360.9,316.3z"/>
</g>
<linearGradient id="SVGID_6_" gradientUnits="userSpaceOnUse" x1="96.6547" y1="245.522" x2="203.6318" y2="245.522">
	<stop  offset="0" style="stop-color:#6EE8FC"/>
	<stop  offset="0.2204" style="stop-color:#6EE8FC"/>
	<stop  offset="0.4892" style="stop-color:#6EE1F8"/>
	<stop  offset="0.7742" style="stop-color:#D4088C"/>
	<stop  offset="1" style="stop-color:#D4088C"/>
</linearGradient>
<path fill="url(#SVGID_6_)" d="M174.2,276.7c-1.3,0-2.7-0.3-3.9-1l-72.7-41.6c-0.6-0.3-0.9-0.9-0.9-1.6c0-0.7,0.3-1.3,0.9-1.6
	l27.5-16.6l0.4,0.7l-27.5,16.6c-0.3,0.2-0.5,0.5-0.5,0.9c0,0.4,0.2,0.7,0.5,0.9l72.7,41.6c2.2,1.2,4.8,1.2,7,0l25.6-14.8l0.4,0.7
	l-25.6,14.8C176.9,276.3,175.5,276.7,174.2,276.7z"/>
<g opacity="0.3">
	<path fill="#6EE8FC" d="M242.6,283.6c-2.6,0-5.1-0.6-7.1-1.7l-61.1-35.3c-2.3-1.4-3.7-3.4-3.7-5.6c0-2.2,1.3-4.2,3.7-5.6l93.7-54.1
		c0.9-0.5,1.2-1,1.2-1.2c0-0.2-0.2-0.7-1.2-1.2l-24.4-14.1c-1.2-0.7-1.6-2.2-0.9-3.4c0.7-1.2,2.2-1.6,3.4-0.9l24.4,14.1
		c2.3,1.3,3.7,3.4,3.7,5.6c0,2.2-1.3,4.2-3.7,5.6l-93.7,54.1c-0.9,0.5-1.2,1-1.2,1.2s0.2,0.7,1.2,1.2l61.1,35.3
		c2.5,1.4,6.8,1.4,9.2,0l24-13.9c1.2-0.7,2.7-0.3,3.4,0.9c0.7,1.2,0.3,2.7-0.9,3.4l-24,13.9C247.8,283.1,245.2,283.6,242.6,283.6z"
		/>
	<path fill="#6EE8FC" d="M379,364.4c-0.9,0-1.7-0.4-2.2-1.3c-0.7-1.2-0.3-2.7,0.9-3.4l81.5-47.1c1-0.6,1.6-1.3,1.6-1.8
		c0-0.5-0.6-1.2-1.6-1.8l-34-19.7c-1.2-0.7-1.6-2.2-0.9-3.4c0.7-1.2,2.2-1.6,3.4-0.9l34,19.7c2.6,1.5,4.1,3.7,4.1,6.1
		c0,2.4-1.5,4.6-4.1,6.1L380.3,364C379.9,364.3,379.5,364.4,379,364.4z"/>
	<path fill="#6EE8FC" d="M508.3,287.5c-2.8,0-5.6-0.6-7.7-1.9l-34.4-19.9c-1.2-0.7-1.6-2.2-0.9-3.4c0.7-1.2,2.2-1.6,3.4-0.9
		l34.4,19.9c2.8,1.6,7.7,1.6,10.5,0l42.9-24.8c1.1-0.6,1.4-1.2,1.4-1.6s-0.4-1-1.4-1.6l-150.1-86.7c-2.5-1.4-3.9-3.6-3.9-5.9
		c0-2.3,1.4-4.5,3.9-5.9l24.2-14c1.2-0.7,2.7-0.3,3.4,0.9c0.7,1.2,0.3,2.7-0.9,3.4l-24.2,14c-1.1,0.6-1.4,1.2-1.4,1.6s0.4,1,1.4,1.6
		L559,249c2.5,1.4,3.9,3.6,3.9,5.9c0,2.3-1.4,4.5-3.9,5.9l-42.9,24.8C513.9,286.9,511.1,287.5,508.3,287.5z"/>
	<path fill="#6EE8FC" d="M367.5,320.8c-3,0-5.9-0.6-8.1-1.9l-107.5-62.1c-2.6-1.5-4-3.7-4-6.1c0-2.8,1.9-5.5,5.1-7.3l105.2-60.8
		c5.5-3.1,13.5-3.4,18.3-0.7L484.1,244c2.6,1.5,4,3.7,4,6.1c0,2.8-1.9,5.5-5.1,7.3l-105.2,60.8C374.8,320,371.1,320.8,367.5,320.8z
		 M361.9,314.6c3.3,1.9,9.4,1.6,13.3-0.7l105.2-60.8c1.9-1.1,2.6-2.3,2.6-3c0-0.8-0.9-1.5-1.5-1.8L374,186.3
		c-3.3-1.9-9.4-1.6-13.3,0.7l-105.2,60.8c-1.9,1.1-2.6,2.3-2.6,3c0,0.8,0.9,1.5,1.5,1.8L361.9,314.6z"/>
</g>

<g class="abc">
	<g>
		<g>
			<path fill="#70E8FC" d="M260.9,272.6c-0.6-1.1-0.3-2.5,0.8-3.1c1.1-0.6,2.4-0.2,3.1,0.8c0.6,1.1,0.3,2.5-0.8,3.1
				C262.9,274,261.5,273.7,260.9,272.6z"/>
		</g>
		<g>
			<path fill="#70E8FC" d="M249.2,279.3c-0.6-1.1-0.3-2.5,0.8-3.1c1.1-0.6,2.4-0.2,3.1,0.8c0.6,1.1,0.3,2.5-0.8,3.1
				C251.2,280.8,249.8,280.4,249.2,279.3z"/>
		</g>
		<g>
			<path fill="#70E8FC" d="M236.4,279.5c0.3-0.6,0.8-0.9,1.3-1.1c0.5-0.2,1-0.3,1.4-0.1c0.9,0.3,1.6,1.4,1.4,2.7
				c-0.1,1.2-1.4,2.1-2.9,1.6c-0.7-0.2-1.3-0.8-1.5-1.4C236,280.7,236.1,280.1,236.4,279.5z"/>
		</g>
		<g>
			<path fill="#70E8FC" d="M224.8,272.8c0.6-1.1,2-1.5,3.1-0.8c1.1,0.6,1.4,2,0.8,3.1c-0.6,1.1-2,1.5-3.1,0.8
				C224.5,275.3,224.2,273.9,224.8,272.8z"/>
		</g>
		<g>
			<path fill="#70E8FC" d="M213.1,266.1c0.6-1.1,2-1.5,3.1-0.8c1.1,0.6,1.4,2,0.8,3.1c-0.6,1.1-2,1.5-3.1,0.8
				C212.9,268.5,212.5,267.2,213.1,266.1z"/>
		</g>
		<g>
			<path fill="#70E8FC" d="M201.5,259.4c0.6-1.1,2-1.5,3.1-0.8c1.1,0.6,1.4,2,0.8,3.1c-0.6,1.1-2,1.5-3.1,0.8
				C201.2,261.8,200.9,260.4,201.5,259.4z"/>
		</g>
		<g>
			<path fill="#70E8FC" d="M189.9,252.6c0.6-1.1,2-1.5,3.1-0.8c1.1,0.6,1.4,2,0.8,3.1c-0.6,1.1-2,1.5-3.1,0.8
				C189.6,255.1,189.2,253.7,189.9,252.6z"/>
		</g>
		<g>
			<path fill="#70E8FC" d="M178.2,245.9c0.6-1.1,2-1.5,3.1-0.8c1.1,0.6,1.4,2,0.8,3.1c-0.6,1.1-2,1.5-3.1,0.8
				C178,248.4,177.6,247,178.2,245.9z"/>
		</g>
		<g>
			<path fill="#70E8FC" d="M177.1,236.8c0.3,0.5,0.4,1.2,0.2,1.7c-0.1,0.3-0.2,0.5-0.4,0.8c-0.1,0.1-0.2,0.2-0.3,0.3
				c-0.1,0.1-0.1,0.2-0.2,0.2c-0.3,0.2-0.7,0.2-1.2,0.2c-0.5-0.1-1.1-0.2-1.6-0.5c-0.5-0.3-0.9-0.9-0.9-1.6c0-0.7,0.5-1.4,1.1-1.9
				c0.2-0.1,0.3-0.2,0.5-0.3c0.2-0.1,0.3-0.1,0.4-0.1c0.3,0,0.6,0,0.9,0.1C176.3,235.9,176.8,236.3,177.1,236.8z"/>
		</g>
		<g>
			<path fill="#70E8FC" d="M188.8,230.1c0.6,1.1,0.3,2.5-0.8,3.1c-1.1,0.6-2.4,0.2-3.1-0.8c-0.6-1.1-0.3-2.5,0.8-3.1
				C186.8,228.6,188.1,229,188.8,230.1z"/>
		</g>
		<g>
			<path fill="#70E8FC" d="M200.4,223.4c0.6,1.1,0.3,2.5-0.8,3.1c-1.1,0.6-2.4,0.2-3.1-0.8c-0.6-1.1-0.3-2.5,0.8-3.1
				C198.4,221.9,199.8,222.3,200.4,223.4z"/>
		</g>
		<g>
			<path fill="#70E8FC" d="M212,216.6c0.6,1.1,0.3,2.5-0.8,3.1c-1.1,0.6-2.4,0.2-3.1-0.8c-0.6-1.1-0.3-2.5,0.8-3.1
				C210,215.2,211.4,215.6,212,216.6z"/>
		</g>
		<g>
			<path fill="#70E8FC" d="M223.7,209.9c0.6,1.1,0.3,2.5-0.8,3.1c-1.1,0.6-2.4,0.2-3.1-0.8c-0.6-1.1-0.3-2.5,0.8-3.1
				C221.7,208.5,223.1,208.8,223.7,209.9z"/>
		</g>
		<g>
			<path fill="#70E8FC" d="M235.3,203.2c0.6,1.1,0.3,2.5-0.8,3.1c-1.1,0.6-2.4,0.2-3.1-0.8c-0.6-1.1-0.3-2.5,0.8-3.1
				C233.3,201.8,234.7,202.1,235.3,203.2z"/>
		</g>
		<g>
			<path fill="#70E8FC" d="M247,196.5c0.6,1.1,0.3,2.5-0.8,3.1c-1.1,0.6-2.4,0.2-3.1-0.8c-0.6-1.1-0.3-2.5,0.8-3.1
				C245,195,246.3,195.4,247,196.5z"/>
		</g>
		<g>
			<path fill="#70E8FC" d="M258.6,189.8c0.6,1.1,0.3,2.5-0.8,3.1c-1.1,0.6-2.4,0.2-3.1-0.8c-0.6-1.1-0.3-2.5,0.8-3.1
				C256.6,188.3,258,188.7,258.6,189.8z"/>
		</g>
		<g>
			<path fill="#70E8FC" d="M270.2,183c0.4,0.5,0.5,1.1,0.3,1.7c0,0.2-0.1,0.3-0.2,0.5c-0.1,0.1-0.1,0.3-0.2,0.4
				c-0.2,0.2-0.4,0.4-0.7,0.6c-1.1,0.6-2.4,0.2-3.1-0.8c-0.6-1.1-0.3-2.5,0.8-3.1C268.3,181.6,269.4,182.1,270.2,183z"/>
		</g>
		<g>
			<path fill="#70E8FC" d="M264.4,173.9c0.6-1.1,2-1.5,3.1-0.8c1.1,0.6,1.4,2,0.8,3.1c-0.6,1.1-2,1.5-3.1,0.8
				C264.2,176.4,263.8,175,264.4,173.9z"/>
		</g>
		<g>
			<path fill="#70E8FC" d="M252.8,167.2c0.6-1.1,2-1.5,3.1-0.8c1.1,0.6,1.4,2,0.8,3.1c-0.6,1.1-2,1.5-3.1,0.8
				C252.5,169.7,252.2,168.3,252.8,167.2z"/>
		</g>
	</g>
	<g>
		<g>
			<path fill="#70E8FC" d="M479.2,270.4c-0.6,1.1-2,1.4-3.1,0.8c-1.1-0.6-1.5-2-0.8-3.1c0.6-1.1,2-1.4,3.1-0.8
				C479.5,268,479.8,269.3,479.2,270.4z"/>
		</g>
		<g>
			<path fill="#70E8FC" d="M491.1,277.3c-0.6,1.1-2,1.4-3.1,0.8c-1.1-0.6-1.5-2-0.8-3.1c0.6-1.1,2-1.4,3.1-0.8
				C491.3,274.8,491.7,276.2,491.1,277.3z"/>
		</g>
		<g>
			<path fill="#70E8FC" d="M502.9,284c-0.2,0.6-0.7,1-1.3,1.2c-0.3,0.1-0.7,0.1-1,0c-0.3,0-0.6-0.1-0.9-0.3c-1.1-0.6-1.5-2-0.8-3.1
				c0.6-1.1,2-1.4,3.1-0.8c0.3,0.2,0.5,0.4,0.7,0.6c0.2,0.2,0.2,0.4,0.3,0.7C503.2,282.8,503.2,283.4,502.9,284z"/>
		</g>
		<g>
			<path fill="#70E8FC" d="M516,282.8c0.3,0.5,0.4,1.2,0.2,1.7c-0.1,0.3-0.2,0.5-0.4,0.8c-0.2,0.2-0.5,0.5-0.9,0.7
				c-1.4,0.7-2.8-0.1-3.1-1.3c-0.3-1.2,0.4-2.4,1.2-2.8c0.2-0.1,0.4-0.2,0.7-0.2c0.3,0,0.6,0,0.9,0.1
				C515.2,281.9,515.7,282.2,516,282.8z"/>
		</g>
		<g>
			<path fill="#70E8FC" d="M527.9,275.9c0.6,1.1,0.2,2.5-0.8,3.1c-1.1,0.6-2.5,0.3-3.1-0.8c-0.6-1.1-0.2-2.5,0.8-3.1
				C525.9,274.5,527.2,274.9,527.9,275.9z"/>
		</g>
		<g>
			<path fill="#70E8FC" d="M539.7,269.1c0.6,1.1,0.2,2.5-0.8,3.1c-1.1,0.6-2.5,0.3-3.1-0.8c-0.6-1.1-0.2-2.5,0.8-3.1
				C537.7,267.7,539.1,268,539.7,269.1z"/>
		</g>
		<g>
			<path fill="#70E8FC" d="M551.5,262.3c0.6,1.1,0.2,2.5-0.8,3.1c-1.1,0.6-2.5,0.3-3.1-0.8c-0.6-1.1-0.2-2.5,0.8-3.1
				C549.5,260.8,550.9,261.2,551.5,262.3z"/>
		</g>
		<g>
			<path fill="#70E8FC" d="M560,253.3c0.5-0.3,1.2-0.3,1.8,0.1c0.6,0.4,1,1.4,0.8,2.5c-0.2,1.1-0.9,1.8-1.6,2
				c-0.7,0.2-1.3,0-1.7-0.4c-0.4-0.4-0.7-1-0.9-1.4c-0.2-0.5-0.3-0.8-0.3-1c0-0.2,0.3-0.3,0.6-0.7
				C559.1,254.1,559.5,253.6,560,253.3z"/>
		</g>
		<g>
			<path fill="#70E8FC" d="M548.6,245.9c0.6-1.1,2-1.4,3.1-0.8c1.1,0.6,1.5,2,0.8,3.1c-0.6,1.1-2,1.4-3.1,0.8
				C548.4,248.4,548,247,548.6,245.9z"/>
		</g>
		<g>
			<path fill="#70E8FC" d="M536.8,239.1c0.6-1.1,2-1.4,3.1-0.8c1.1,0.6,1.5,2,0.8,3.1c-0.6,1.1-2,1.4-3.1,0.8
				C536.6,241.6,536.2,240.2,536.8,239.1z"/>
		</g>
		<g>
			<path fill="#70E8FC" d="M525,232.3c0.6-1.1,2-1.4,3.1-0.8c1.1,0.6,1.5,2,0.8,3.1c-0.6,1.1-2,1.4-3.1,0.8
				C524.7,234.7,524.3,233.3,525,232.3z"/>
		</g>
		<g>
			<path fill="#70E8FC" d="M513.1,225.4c0.6-1.1,2-1.4,3.1-0.8c1.1,0.6,1.5,2,0.8,3.1c-0.6,1.1-2,1.4-3.1,0.8
				C512.9,227.9,512.5,226.5,513.1,225.4z"/>
		</g>
		<g>
			<path fill="#70E8FC" d="M501.3,218.6c0.6-1.1,2-1.4,3.1-0.8c1.1,0.6,1.5,2,0.8,3.1c-0.6,1.1-2,1.4-3.1,0.8
				C501.1,221.1,500.7,219.7,501.3,218.6z"/>
		</g>
		<g>
			<path fill="#70E8FC" d="M489.5,211.8c0.6-1.1,2-1.4,3.1-0.8c1.1,0.6,1.5,2,0.8,3.1c-0.6,1.1-2,1.4-3.1,0.8
				C489.2,214.2,488.8,212.8,489.5,211.8z"/>
		</g>
		<g>
			<path fill="#70E8FC" d="M477.6,204.9c0.6-1.1,2-1.4,3.1-0.8c1.1,0.6,1.5,2,0.8,3.1s-2,1.4-3.1,0.8
				C477.4,207.4,477,206,477.6,204.9z"/>
		</g>
		<g>
			<path fill="#70E8FC" d="M465.8,198.1c0.6-1.1,2-1.4,3.1-0.8c1.1,0.6,1.5,2,0.8,3.1s-2,1.4-3.1,0.8
				C465.5,200.6,465.2,199.2,465.8,198.1z"/>
		</g>
		<g>
			<path fill="#70E8FC" d="M454,191.3c0.6-1.1,2-1.4,3.1-0.8c1.1,0.6,1.5,2,0.8,3.1c-0.6,1.1-2,1.4-3.1,0.8
				C453.7,193.7,453.3,192.3,454,191.3z"/>
		</g>
		<g>
			<path fill="#70E8FC" d="M442.1,184.4c0.6-1.1,2-1.4,3.1-0.8c1.1,0.6,1.5,2,0.8,3.1c-0.6,1.1-2,1.4-3.1,0.8
				C441.9,186.9,441.5,185.5,442.1,184.4z"/>
		</g>
		<g>
			<path fill="#70E8FC" d="M430.3,177.6c0.6-1.1,2-1.4,3.1-0.8c1.1,0.6,1.5,2,0.8,3.1c-0.6,1.1-2,1.4-3.1,0.8
				C430,180.1,429.7,178.7,430.3,177.6z"/>
		</g>
		<g>
			<path fill="#70E8FC" d="M418.4,170.8c0.6-1.1,2-1.4,3.1-0.8c1.1,0.6,1.5,2,0.8,3.1c-0.6,1.1-2,1.4-3.1,0.8
				C418.2,173.2,417.8,171.8,418.4,170.8z"/>
		</g>
		<g>
			<path fill="#70E8FC" d="M406.7,163.8c0.4-0.5,0.9-0.8,1.4-0.9c0.5-0.2,1.1-0.1,1.6,0.2c1.1,0.6,1.5,2,0.8,3.1
				c-0.6,1.1-2,1.4-3.1,0.8c-0.5-0.3-0.9-0.8-1.1-1.4C406.1,165,406.3,164.3,406.7,163.8z"/>
		</g>
		<g>
			<path fill="#70E8FC" d="M412.1,154.4c0.6,1.1,0.2,2.5-0.8,3.1s-2.5,0.3-3.1-0.8c-0.6-1.1-0.2-2.5,0.8-3.1
				C410.1,153,411.5,153.3,412.1,154.4z"/>
		</g>
		<g>
			<path fill="#70E8FC" d="M423.9,147.6c0.6,1.1,0.2,2.5-0.8,3.1c-1.1,0.6-2.5,0.3-3.1-0.8c-0.6-1.1-0.2-2.5,0.8-3.1
				C421.9,146.1,423.3,146.5,423.9,147.6z"/>
		</g>
	</g>
	<g>
		<g>
			<path fill="#70E8FC" d="M438.2,293.9c-0.6,1.1-2,1.5-3.1,0.8c-1.1-0.6-1.4-2-0.8-3.1c0.6-1.1,2-1.5,3.1-0.8
				C438.4,291.5,438.8,292.8,438.2,293.9z"/>
		</g>
		<g>
			<path fill="#70E8FC" d="M449.8,300.7c-0.6,1.1-2,1.5-3.1,0.8c-1.1-0.6-1.4-2-0.8-3.1c0.6-1.1,2-1.5,3.1-0.8
				C450.1,298.2,450.5,299.6,449.8,300.7z"/>
		</g>
		<g>
			<path fill="#70E8FC" d="M461.5,307.5c-0.4,0.5-0.9,0.8-1.4,1c-0.4,0.2-1.1,0.1-1.6-0.2c-1.1-0.6-1.4-2-0.8-3.1
				c0.6-1.1,2-1.5,3.1-0.8c0.5,0.3,0.9,0.8,1.1,1.4C462,306.3,461.8,307,461.5,307.5z"/>
		</g>
		<g>
			<path fill="#70E8FC" d="M456.8,317c-0.6-1.1-0.3-2.5,0.8-3.1c1.1-0.6,2.5-0.2,3.1,0.8c0.6,1.1,0.3,2.5-0.8,3.1
				C458.8,318.4,457.4,318,456.8,317z"/>
		</g>
		<g>
			<path fill="#70E8FC" d="M445.1,323.7c-0.6-1.1-0.3-2.5,0.8-3.1c1.1-0.6,2.4-0.2,3.1,0.8c0.6,1.1,0.3,2.5-0.8,3.1
				C447.1,325.1,445.8,324.8,445.1,323.7z"/>
		</g>
		<g>
			<path fill="#70E8FC" d="M433.5,330.4c-0.6-1.1-0.3-2.5,0.8-3.1c1.1-0.6,2.4-0.2,3.1,0.8c0.6,1.1,0.3,2.5-0.8,3.1
				C435.5,331.9,434.1,331.5,433.5,330.4z"/>
		</g>
		<g>
			<path fill="#70E8FC" d="M421.8,337.2c-0.6-1.1-0.3-2.5,0.8-3.1c1.1-0.6,2.4-0.2,3.1,0.8c0.6,1.1,0.3,2.5-0.8,3.1
				C423.8,338.6,422.4,338.2,421.8,337.2z"/>
		</g>
		<g>
			<path fill="#70E8FC" d="M410.1,343.9c-0.6-1.1-0.3-2.5,0.8-3.1c1.1-0.6,2.4-0.2,3.1,0.8c0.6,1.1,0.3,2.5-0.8,3.1
				C412.1,345.4,410.8,345,410.1,343.9z"/>
		</g>
		<g>
			<path fill="#70E8FC" d="M398.5,350.6c-0.6-1.1-0.3-2.5,0.8-3.1c1.1-0.6,2.4-0.2,3.1,0.8c0.6,1.1,0.3,2.5-0.8,3.1
				C400.5,352.1,399.1,351.7,398.5,350.6z"/>
		</g>
		<g>
			<path fill="#70E8FC" d="M386.8,357.4c-0.6-1.1-0.3-2.5,0.8-3.1c1.1-0.6,2.4-0.2,3.1,0.8c0.6,1.1,0.3,2.5-0.8,3.1
				S387.4,358.5,386.8,357.4z"/>
		</g>
	</g>
</g>
<g>
	<g>
		<g>
			<path opacity="0.8" fill="#0C0F38" d="M364.9,235.9L332.1,217c-2.3-1.3-2-3.7,0.7-5.2l31.5-18.2c2.7-1.6,6.8-1.7,9.1-0.4
				l32.8,18.9c2.3,1.3,2,3.7-0.7,5.2L374,235.5C371.3,237.1,367.2,237.3,364.9,235.9z"/>
			<linearGradient id="SVGID_7_" gradientUnits="userSpaceOnUse" x1="323.2949" y1="214.5701" x2="414.8916" y2="214.5701">
				<stop  offset="0" style="stop-color:#D4088C"/>
				<stop  offset="0.2258" style="stop-color:#D4088C"/>
				<stop  offset="0.5108" style="stop-color:#6EE1F8"/>
				<stop  offset="0.7796" style="stop-color:#6EE8FC"/>
				<stop  offset="1" style="stop-color:#6EE8FC"/>
			</linearGradient>
			<path fill="url(#SVGID_7_)" d="M368.8,241.2c-1.8,0-3.5-0.4-4.8-1.1l-38.6-22.3c-1.3-0.8-2-1.8-2-3c0-1.4,1-2.8,2.8-3.8
				l37.1-21.4c3.3-1.9,8.2-2.1,11.1-0.4l38.6,22.3c1.3,0.8,2,1.8,2,3c0,1.4-1,2.8-2.8,3.8L375,239.6
				C373.2,240.6,371,241.2,368.8,241.2z M364.3,239.4c2.6,1.5,7.3,1.3,10.3-0.4l37.1-21.4c1.5-0.9,2.4-2,2.4-3.2
				c0-0.9-0.6-1.7-1.7-2.3l-38.6-22.3c-2.6-1.5-7.3-1.3-10.3,0.4l-37.1,21.4c-1.5,0.9-2.4,2-2.4,3.2c0,0.9,0.6,1.7,1.7,2.3
				L364.3,239.4z"/>
			<linearGradient id="SVGID_8_" gradientUnits="userSpaceOnUse" x1="323.2543" y1="159.3031" x2="417.185" y2="159.3031">
				<stop  offset="0" style="stop-color:#A31FA9"/>
				<stop  offset="6.679147e-02" style="stop-color:#8B17A0"/>
				<stop  offset="0.1494" style="stop-color:#740F98"/>
				<stop  offset="0.2393" style="stop-color:#640A92"/>
				<stop  offset="0.3408" style="stop-color:#5B078F"/>
				<stop  offset="0.4785" style="stop-color:#58068E"/>
				<stop  offset="0.6264" style="stop-color:#4D22A3"/>
				<stop  offset="0.9436" style="stop-color:#3168DA"/>
				<stop  offset="1" style="stop-color:#2C75E4"/>
			</linearGradient>
			<path fill="url(#SVGID_8_)" d="M407.6,130.3h-16.2l-18.1-10.4c-2.3-1.3-6.4-1.2-9.1,0.4l-17.4,10.1h-16.2v47h0
				c-0.1,0.9,0.4,1.8,1.6,2.4l32.8,18.9c2.3,1.3,6.4,1.2,9.1-0.4l31.5-18.2c1.4-0.8,2.1-1.8,2.2-2.8h0V130.3z"/>
			<linearGradient id="SVGID_9_" gradientUnits="userSpaceOnUse" x1="323.2543" y1="188.1073" x2="417.185" y2="188.1073">
				<stop  offset="0" style="stop-color:#D4088C"/>
				<stop  offset="0.2258" style="stop-color:#D4088C"/>
				<stop  offset="0.5108" style="stop-color:#6EE1F8"/>
				<stop  offset="0.7796" style="stop-color:#6EE8FC"/>
				<stop  offset="1" style="stop-color:#6EE8FC"/>
			</linearGradient>
			<path fill="url(#SVGID_9_)" d="M405.4,179.4L374,197.6c-2.7,1.6-6.8,1.7-9.1,0.4L332.1,179c-1.1-0.6-1.6-1.5-1.6-2.4h0v0.8h0
				c-0.1,0.9,0.4,1.8,1.6,2.4l32.8,18.9c2.3,1.3,6.4,1.2,9.1-0.4l31.5-18.2c1.4-0.8,2.1-1.8,2.2-2.8h0v-0.8h0
				C407.6,177.6,406.8,178.6,405.4,179.4z"/>
			<path fill="#D4088C" d="M331.6,178.1L331.6,178.1l0-47h16.2l17.4-10.1c2.7-1.6,6.8-1.7,9.1-0.4l18.1,10.4h15.2v-0.8h-16.2
				l-18.1-10.4c-2.3-1.3-6.4-1.2-9.1,0.4l-17.4,10.1h-16.2v47h0c-0.1,0.9,0.4,1.8,1.6,2.4l0.2,0.1
				C331.8,179.4,331.5,178.7,331.6,178.1z"/>
			<path fill="#6EE8FC" d="M406.7,131.2v47h0c0,0.6-0.3,1.1-0.8,1.7c1.1-0.7,1.6-1.6,1.7-2.5h0v-46.9
				C407.3,130.7,407,130.9,406.7,131.2z"/>
			
				<linearGradient id="SVGID_10_" gradientUnits="userSpaceOnUse" x1="536.1812" y1="659.4199" x2="580.4885" y2="621.0486" gradientTransform="matrix(0.866 0.5 -1 0.5774 525.0016 -518.4943)">
				<stop  offset="0" style="stop-color:#8D139B"/>
				<stop  offset="0.1651" style="stop-color:#851BA1"/>
				<stop  offset="0.4284" style="stop-color:#6E33B2"/>
				<stop  offset="0.7551" style="stop-color:#4958CD"/>
				<stop  offset="1" style="stop-color:#2979E4"/>
			</linearGradient>
			<path fill="url(#SVGID_10_)" d="M364.9,151.7l-32.8-18.9c-2.3-1.3-2-3.7,0.7-5.2l31.5-18.2c2.7-1.6,6.8-1.7,9.1-0.4l32.8,18.9
				c2.3,1.3,2,3.7-0.7,5.2L374,151.3C371.3,152.9,367.2,153,364.9,151.7z"/>
			<path fill="#6EE8FC" d="M406.1,127.9L373.3,109c-1.2-0.7-2.9-1-4.6-0.9c1.2,0.1,2.4,0.4,3.3,0.9l32.8,18.9c2.3,1.3,2,3.7-0.7,5.2
				l-31.5,18.2c-1.3,0.7-2.9,1.2-4.5,1.3c2,0.1,4.1-0.3,5.8-1.3l31.5-18.2C408.1,131.6,408.4,129.3,406.1,127.9z"/>
			
				<linearGradient id="SVGID_11_" gradientUnits="userSpaceOnUse" x1="541.9607" y1="654.4147" x2="574.9474" y2="625.8473" gradientTransform="matrix(0.866 0.5 -1 0.5774 525.0016 -518.4943)">
				<stop  offset="0" style="stop-color:#630692"/>
				<stop  offset="0.2262" style="stop-color:#5B0E94"/>
				<stop  offset="0.587" style="stop-color:#432399"/>
				<stop  offset="1" style="stop-color:#2142A1"/>
			</linearGradient>
			<path fill="url(#SVGID_11_)" d="M366,146.2l-24.4-14.1c-1.7-1-1.5-2.8,0.5-3.9l23.4-13.5c2-1.2,5-1.3,6.8-0.3l24.4,14.1
				c1.7,1,1.5,2.8-0.5,3.9L372.7,146C370.7,147.1,367.7,147.2,366,146.2z"/>
			<path fill="#6DE0F6" d="M366.8,141.9l-17.7-10.2c-1.3-0.7-1.1-2,0.4-2.8l17-9.8c1.5-0.8,3.6-0.9,4.9-0.2L389,129
				c1.3,0.7,1.1,2-0.4,2.8l-17,9.8C370.3,142.5,368.1,142.6,366.8,141.9z"/>
			<path fill="#D4088C" d="M366.3,151.7l-32.8-18.9c-2.3-1.3-2-3.7,0.7-5.2l31.5-18.2c1.3-0.7,2.9-1.2,4.4-1.3
				c-2-0.1-4.2,0.3-5.9,1.3l-31.5,18.2c-2.7,1.6-3,3.9-0.7,5.2l32.8,18.9c1.2,0.7,2.9,1,4.7,0.9
				C368.3,152.5,367.2,152.2,366.3,151.7z"/>
			<g>
				<defs>
					<path id="SVGID_12_" d="M366.8,141.9l-17.7-10.2c-1.3-0.7-1.1-2,0.4-2.8l17-9.8c1.5-0.8,3.6-0.9,4.9-0.2L389,129
						c1.3,0.7,1.1,2-0.4,2.8l-17,9.8C370.3,142.5,368.1,142.6,366.8,141.9z"/>
				</defs>
				<clipPath id="SVGID_13_">
					<use xlink:href="#SVGID_12_"  overflow="visible"/>
				</clipPath>
				<path clip-path="url(#SVGID_13_)" fill="#267FE5" d="M349.5,130.2l17-9.8c1.5-0.8,3.6-0.9,4.9-0.2l17.7,10.2
					c0.3,0.2,0.5,0.4,0.6,0.6c0.4-0.7,0.2-1.4-0.6-1.9l-17.7-10.2c-1.3-0.7-3.5-0.6-4.9,0.2l-17,9.8c-1.1,0.7-1.5,1.6-1,2.3
					C348.7,130.8,349,130.5,349.5,130.2z"/>
				<path clip-path="url(#SVGID_13_)" fill="#25BFEC" d="M349.5,131.9l17-9.8c1.5-0.8,3.6-0.9,4.9-0.2l17.7,10.2
					c0.2,0.1,0.4,0.3,0.5,0.4c0.6-0.7,0.4-1.6-0.5-2.1l-17.7-10.2c-1.3-0.7-3.5-0.6-4.9,0.2l-17,9.8c-1.2,0.7-1.5,1.7-0.9,2.4
					C348.8,132.3,349.1,132.1,349.5,131.9z"/>
				<path clip-path="url(#SVGID_13_)" fill="#18D0F7" d="M348.8,134.5c0.2-0.2,0.4-0.4,0.7-0.5l17-9.8c1.5-0.8,3.6-0.9,4.9-0.2
					l17.7,10.2c0.1,0.1,0.2,0.2,0.3,0.3c0.7-0.8,0.7-1.7-0.3-2.3l-17.7-10.2c-1.3-0.7-3.5-0.6-4.9,0.2l-17,9.8
					C348.2,132.6,347.9,133.7,348.8,134.5z"/>
			</g>
			<g>
				<path fill="#6DE0F6" d="M380.4,186.3l-1.8,1c-0.5,0.3-0.8,0-0.8-0.6v-25.4c0-0.6,0.4-1.3,0.8-1.6l1.8-1c0.5-0.3,0.8,0,0.8,0.6
					v25.4C381.2,185.3,380.9,186.1,380.4,186.3z"/>
				<path fill="#267FE5" d="M380.4,158.7L380,159v24.9c0,0.6-0.4,1.3-0.8,1.6l-1.4,0.8v0.5c0,0.6,0.4,0.9,0.8,0.6l1.8-1
					c0.5-0.3,0.8-1,0.8-1.6v-25.4C381.2,158.7,380.9,158.4,380.4,158.7z"/>
				<path fill="#6DE0F6" d="M387.1,182.5l-1.8,1c-0.5,0.3-0.8,0-0.8-0.6v-25.4c0-0.6,0.4-1.3,0.8-1.6l1.8-1c0.5-0.3,0.8,0,0.8,0.6
					v25.4C387.9,181.5,387.6,182.2,387.1,182.5z"/>
				<path fill="#6DE0F6" d="M393.8,178.6l-1.8,1c-0.5,0.3-0.8,0-0.8-0.6v-25.4c0-0.6,0.4-1.3,0.8-1.6l1.8-1c0.5-0.3,0.8,0,0.8,0.6
					V177C394.6,177.6,394.2,178.3,393.8,178.6z"/>
				<path fill="#6DE0F6" d="M400.5,174.7l-1.8,1c-0.5,0.3-0.8,0-0.8-0.6v-25.4c0-0.6,0.4-1.3,0.8-1.6l1.8-1c0.5-0.3,0.8,0,0.8,0.6
					v25.4C401.3,173.7,400.9,174.5,400.5,174.7z"/>
				<path fill="#267FE5" d="M387.1,154.8l-0.4,0.3V180c0,0.6-0.4,1.3-0.8,1.6l-1.4,0.8v0.5c0,0.6,0.4,0.9,0.8,0.6l1.8-1
					c0.5-0.3,0.8-1,0.8-1.6v-25.4C387.9,154.9,387.6,154.6,387.1,154.8z"/>
				<path fill="#267FE5" d="M393.8,151l-0.4,0.3v24.9c0,0.6-0.4,1.3-0.8,1.6l-1.4,0.8v0.5c0,0.6,0.4,0.9,0.8,0.6l1.8-1
					c0.5-0.3,0.8-1,0.8-1.6v-25.4C394.6,151,394.2,150.7,393.8,151z"/>
				<path fill="#267FE5" d="M400.5,147.1l-0.4,0.3v24.9c0,0.6-0.4,1.3-0.8,1.6l-1.4,0.8v0.5c0,0.6,0.4,0.9,0.8,0.6l1.8-1
					c0.5-0.3,0.8-1,0.8-1.6v-25.4C401.3,147.1,400.9,146.8,400.5,147.1z"/>
			</g>
			<path fill="#480689" d="M362.2,189.4c-0.2,0-0.4-0.1-0.7-0.2l-23.7-13.7c-0.8-0.5-1.5-1.7-1.5-2.8V146c0-0.6,0.2-1.1,0.6-1.3
				c0.3-0.2,0.7-0.2,1.1,0.1l23.7,13.7c0.8,0.5,1.5,1.7,1.5,2.8V188c0,0.6-0.2,1.1-0.6,1.3C362.5,189.4,362.3,189.4,362.2,189.4z
				 M337.5,145.1c-0.1,0-0.1,0-0.2,0.1c-0.2,0.1-0.3,0.4-0.3,0.8v26.8c0,0.9,0.5,1.9,1.2,2.3l23.7,13.7c0.2,0.1,0.4,0.2,0.6,0.1
				c0.2-0.1,0.3-0.4,0.3-0.8v-26.8c0-0.9-0.5-1.9-1.2-2.3l-23.7-13.7C337.7,145.1,337.6,145.1,337.5,145.1z"/>
			<g>
				<path fill="#6DE0F6" d="M341,151.2c0,0.7-0.5,1-1.2,0.7c-0.6-0.4-1.2-1.3-1.2-2s0.5-1,1.2-0.7C340.5,149.6,341,150.5,341,151.2z
					"/>
				<path fill="#6DE0F6" d="M341,155c0,0.7-0.5,1-1.2,0.7c-0.6-0.4-1.2-1.3-1.2-2c0-0.7,0.5-1,1.2-0.7
					C340.5,153.3,341,154.2,341,155z"/>
				<path fill="#6DE0F6" d="M341,158.7c0,0.7-0.5,1-1.2,0.7c-0.6-0.4-1.2-1.3-1.2-2c0-0.7,0.5-1,1.2-0.7
					C340.5,157.1,341,158,341,158.7z"/>
				<path fill="#267FE5" d="M340.4,158.9c-0.6-0.4-1.2-1.3-1.2-2c0-0.1,0-0.3,0.1-0.4c-0.4,0-0.6,0.3-0.6,0.8c0,0.7,0.5,1.6,1.2,2
					c0.5,0.3,0.9,0.2,1.1-0.3C340.8,159.1,340.6,159,340.4,158.9z"/>
				<path fill="#267FE5" d="M340.4,155.2c-0.6-0.4-1.2-1.3-1.2-2c0-0.1,0-0.3,0.1-0.4c-0.4,0-0.6,0.3-0.6,0.8c0,0.7,0.5,1.6,1.2,2
					c0.5,0.3,0.9,0.2,1.1-0.3C340.8,155.3,340.6,155.3,340.4,155.2z"/>
				<path fill="#267FE5" d="M340.4,151.4c-0.6-0.4-1.2-1.3-1.2-2c0-0.1,0-0.3,0.1-0.4c-0.4,0-0.6,0.3-0.6,0.8c0,0.7,0.5,1.6,1.2,2
					c0.5,0.3,0.9,0.2,1.1-0.3C340.8,151.6,340.6,151.5,340.4,151.4z"/>
			</g>
			<path fill="#480689" d="M360,176l-0.8-0.4c-0.2-0.1-0.4-0.5-0.4-0.8v-3.7c0-0.3,0.2-0.5,0.4-0.3l0.8,0.4c0.2,0.1,0.4,0.5,0.4,0.8
				v3.7C360.5,176,360.3,176.2,360,176z"/>
		</g>
		<linearGradient id="SVGID_14_" gradientUnits="userSpaceOnUse" x1="369.109" y1="142.3494" x2="369.109" y2="41.851">
			<stop  offset="1.075270e-02" style="stop-color:#25BFEC"/>
			<stop  offset="4.534507e-02" style="stop-color:#24B4E1"/>
			<stop  offset="0.2186" style="stop-color:#1F83B0"/>
			<stop  offset="0.3902" style="stop-color:#1B5A86"/>
			<stop  offset="0.5567" style="stop-color:#173A66"/>
			<stop  offset="0.7168" style="stop-color:#152350"/>
			<stop  offset="0.8678" style="stop-color:#131642"/>
			<stop  offset="1" style="stop-color:#13113D"/>
		</linearGradient>
		<path opacity="0.2" fill="url(#SVGID_14_)" d="M389.9,41.9h-41.6v88.6l0,0c0,0.5,0.3,0.9,0.8,1.2l17.7,10.2
			c1.3,0.7,3.4,0.6,4.9-0.2l17-9.8c0.8-0.4,1.2-1,1.2-1.5l0,0V41.9z"/>
		<linearGradient id="SVGID_15_" gradientUnits="userSpaceOnUse" x1="369.109" y1="141.2523" x2="369.109" y2="50.298">
			<stop  offset="1.075270e-02" style="stop-color:#70E8FC"/>
			<stop  offset="0.1484" style="stop-color:#5AB5CF"/>
			<stop  offset="0.3028" style="stop-color:#4584A3"/>
			<stop  offset="0.4559" style="stop-color:#335A7E"/>
			<stop  offset="0.6045" style="stop-color:#253A62"/>
			<stop  offset="0.7474" style="stop-color:#1B244D"/>
			<stop  offset="0.882" style="stop-color:#151641"/>
			<stop  offset="1" style="stop-color:#13113D"/>
		</linearGradient>
		<path opacity="0.25" fill="url(#SVGID_15_)" d="M387.9,50.3h-37.6v80.2l0,0c0,0.4,0.3,0.8,0.8,1.1l16,9.2c1.1,0.7,3.1,0.6,4.4-0.2
			l15.3-8.9c0.7-0.4,1-0.9,1.1-1.4l0,0V50.3z"/>
		<g>
			<path fill="#6DE0F6" d="M360.8,123c0,0.9-0.7,1.5-1.5,1.5c-0.9,0-1.5-0.7-1.5-1.5c0-0.9,0.7-1.5,1.5-1.5
				C360.1,121.5,360.8,122.2,360.8,123z"/>
			<circle fill="#6DE0F6" cx="370.9" cy="112.6" r="2.6"/>
			<path fill="#6DE0F6" d="M368.3,111c0,0.4-0.3,0.7-0.7,0.7c-0.4,0-0.7-0.3-0.7-0.7s0.3-0.7,0.7-0.7
				C368,110.3,368.3,110.6,368.3,111z"/>
			<circle fill="#6DE0F6" cx="379.2" cy="97.7" r="1.3"/>
			<circle fill="#6DE0F6" cx="372.2" cy="86.5" r="0.9"/>
			<path fill="#6DE0F6" d="M362.5,79.3c0,0.9-0.8,1.7-1.7,1.7c-0.9,0-1.7-0.8-1.7-1.7c0-0.9,0.8-1.7,1.7-1.7
				C361.7,77.6,362.5,78.4,362.5,79.3z"/>
			<circle fill="#6DE0F6" cx="365.8" cy="65.2" r="0.9"/>
			<circle fill="#6DE0F6" cx="372.9" cy="71.4" r="1.1"/>
			<path fill="#6DE0F6" d="M374.8,69.1c0,0.3-0.2,0.5-0.5,0.5c-0.3,0-0.5-0.2-0.5-0.5s0.2-0.5,0.5-0.5
				C374.6,68.6,374.8,68.8,374.8,69.1z"/>
			<path fill="#6DE0F6" d="M381.8,57.6c0,0.9-0.7,1.6-1.6,1.6c-0.9,0-1.6-0.7-1.6-1.6c0-0.9,0.7-1.6,1.6-1.6
				C381.1,56,381.8,56.7,381.8,57.6z"/>
		</g>
	</g>
	<g>
		<g>
			<path opacity="0.6" fill="#0C0F38" d="M308.1,271.2l-32.8-18.9c-2.3-1.3-2-3.7,0.7-5.2l31.5-18.2c2.7-1.6,6.8-1.7,9.1-0.4
				l32.8,18.9c2.3,1.3,2,3.7-0.7,5.2l-31.5,18.2C314.5,272.4,310.4,272.5,308.1,271.2z"/>
			<linearGradient id="SVGID_16_" gradientUnits="userSpaceOnUse" x1="266.4932" y1="249.853" x2="358.0908" y2="249.853">
				<stop  offset="0" style="stop-color:#D4088C"/>
				<stop  offset="0.2258" style="stop-color:#D4088C"/>
				<stop  offset="0.5108" style="stop-color:#6EE1F8"/>
				<stop  offset="0.7796" style="stop-color:#6EE8FC"/>
				<stop  offset="1" style="stop-color:#6EE8FC"/>
			</linearGradient>
			<path fill="url(#SVGID_16_)" d="M312,276.5c-1.8,0-3.5-0.4-4.8-1.1l-38.6-22.3c-1.3-0.8-2-1.8-2-3c0-1.4,1-2.8,2.8-3.8l37.1-21.4
				c3.3-1.9,8.2-2.1,11.1-0.4l38.6,22.3c1.3,0.8,2,1.8,2,3c0,1.4-1,2.8-2.8,3.8l-37.1,21.4C316.4,275.9,314.1,276.5,312,276.5z
				 M307.5,274.7c2.6,1.5,7.3,1.3,10.3-0.4l37.1-21.4c1.5-0.9,2.4-2,2.4-3.2c0-0.9-0.6-1.7-1.7-2.3L317.1,225
				c-2.6-1.5-7.3-1.3-10.3,0.4l-37.1,21.4c-1.5,0.9-2.4,2-2.4,3.2c0,0.9,0.6,1.7,1.7,2.3L307.5,274.7z"/>
			<linearGradient id="SVGID_17_" gradientUnits="userSpaceOnUse" x1="266.453" y1="194.5862" x2="360.3836" y2="194.5862">
				<stop  offset="0" style="stop-color:#A31FA9"/>
				<stop  offset="6.679147e-02" style="stop-color:#8B17A0"/>
				<stop  offset="0.1494" style="stop-color:#740F98"/>
				<stop  offset="0.2393" style="stop-color:#640A92"/>
				<stop  offset="0.3408" style="stop-color:#5B078F"/>
				<stop  offset="0.4785" style="stop-color:#58068E"/>
				<stop  offset="0.6264" style="stop-color:#4D22A3"/>
				<stop  offset="0.9436" style="stop-color:#3168DA"/>
				<stop  offset="1" style="stop-color:#2C75E4"/>
			</linearGradient>
			<path fill="url(#SVGID_17_)" d="M350.8,165.6h-16.2l-18.1-10.4c-2.3-1.3-6.4-1.2-9.1,0.4L290,165.6h-16.2v47h0
				c-0.1,0.9,0.4,1.8,1.6,2.4l32.8,18.9c2.3,1.3,6.4,1.2,9.1-0.4l31.5-18.2c1.4-0.8,2.1-1.8,2.2-2.8h0V165.6z"/>
			<linearGradient id="SVGID_18_" gradientUnits="userSpaceOnUse" x1="266.453" y1="223.3904" x2="360.3837" y2="223.3904">
				<stop  offset="0" style="stop-color:#D4088C"/>
				<stop  offset="0.2258" style="stop-color:#D4088C"/>
				<stop  offset="0.5108" style="stop-color:#6EE1F8"/>
				<stop  offset="0.7796" style="stop-color:#6EE8FC"/>
				<stop  offset="1" style="stop-color:#6EE8FC"/>
			</linearGradient>
			<path fill="url(#SVGID_18_)" d="M348.6,214.7l-31.5,18.2c-2.7,1.6-6.8,1.7-9.1,0.4l-32.8-18.9c-1.1-0.6-1.6-1.5-1.6-2.4h0v0.8h0
				c-0.1,0.9,0.4,1.8,1.6,2.4l32.8,18.9c2.3,1.3,6.4,1.2,9.1-0.4l31.5-18.2c1.4-0.8,2.1-1.8,2.2-2.8h0v-0.8h0
				C350.8,212.9,350,213.9,348.6,214.7z"/>
			<path fill="#D4088C" d="M274.8,213.4L274.8,213.4l0-47H291l17.4-10.1c2.7-1.6,6.8-1.7,9.1-0.4l18.1,10.4h15.2v-0.8h-16.2
				l-18.1-10.4c-2.3-1.3-6.4-1.2-9.1,0.4L290,165.6h-16.2v47h0c-0.1,0.9,0.4,1.8,1.6,2.4l0.2,0.1C275,214.6,274.7,214,274.8,213.4z"
				/>
			<path fill="#6EE8FC" d="M349.9,166.5v47h0c0,0.6-0.3,1.1-0.8,1.7c1.1-0.7,1.6-1.6,1.7-2.5h0v-46.9
				C350.5,166,350.2,166.2,349.9,166.5z"/>
			
				<linearGradient id="SVGID_19_" gradientUnits="userSpaceOnUse" x1="538.6672" y1="718.374" x2="582.9745" y2="680.0028" gradientTransform="matrix(0.866 0.5 -1 0.5774 525.0016 -518.4943)">
				<stop  offset="0" style="stop-color:#8D139B"/>
				<stop  offset="0.1651" style="stop-color:#851BA1"/>
				<stop  offset="0.4284" style="stop-color:#6E33B2"/>
				<stop  offset="0.7551" style="stop-color:#4958CD"/>
				<stop  offset="1" style="stop-color:#2979E4"/>
			</linearGradient>
			<path fill="url(#SVGID_19_)" d="M308.1,187l-32.8-18.9c-2.3-1.3-2-3.7,0.7-5.2l31.5-18.2c2.7-1.6,6.8-1.7,9.1-0.4l32.8,18.9
				c2.3,1.3,2,3.7-0.7,5.2l-31.5,18.2C314.5,188.2,310.4,188.3,308.1,187z"/>
			<path fill="#6EE8FC" d="M349.3,163.2l-32.8-18.9c-1.2-0.7-2.9-1-4.6-0.9c1.2,0.1,2.4,0.4,3.3,0.9l32.8,18.9
				c2.3,1.3,2,3.7-0.7,5.2l-31.5,18.2c-1.3,0.7-2.9,1.2-4.5,1.3c2,0.1,4.1-0.3,5.8-1.3l31.5-18.2
				C351.3,166.9,351.6,164.5,349.3,163.2z"/>
			
				<linearGradient id="SVGID_20_" gradientUnits="userSpaceOnUse" x1="544.4467" y1="713.3688" x2="577.4334" y2="684.8015" gradientTransform="matrix(0.866 0.5 -1 0.5774 525.0016 -518.4943)">
				<stop  offset="0" style="stop-color:#630692"/>
				<stop  offset="0.2262" style="stop-color:#5B0E94"/>
				<stop  offset="0.587" style="stop-color:#432399"/>
				<stop  offset="1" style="stop-color:#2142A1"/>
			</linearGradient>
			<path fill="url(#SVGID_20_)" d="M309.2,181.5l-24.4-14.1c-1.7-1-1.5-2.8,0.5-3.9l23.4-13.5c2-1.2,5-1.3,6.8-0.3l24.4,14.1
				c1.7,1,1.5,2.8-0.5,3.9l-23.4,13.5C313.9,182.4,310.9,182.5,309.2,181.5z"/>
			<path fill="#6DE0F6" d="M310,177.1l-17.7-10.2c-1.3-0.7-1.1-2,0.4-2.8l17-9.8c1.5-0.8,3.6-0.9,4.9-0.2l17.7,10.2
				c1.3,0.7,1.1,2-0.4,2.8l-17,9.8C313.5,177.8,311.3,177.9,310,177.1z"/>
			<path fill="#D4088C" d="M309.5,187l-32.8-18.9c-2.3-1.3-2-3.7,0.7-5.2l31.5-18.2c1.3-0.7,2.9-1.2,4.4-1.3c-2-0.1-4.2,0.3-5.9,1.3
				L276,162.8c-2.7,1.6-3,3.9-0.7,5.2l32.8,18.9c1.2,0.7,2.9,1,4.7,0.9C311.5,187.8,310.4,187.5,309.5,187z"/>
			<g>
				<defs>
					<path id="SVGID_21_" d="M310,177.1l-17.7-10.2c-1.3-0.7-1.1-2,0.4-2.8l17-9.8c1.5-0.8,3.6-0.9,4.9-0.2l17.7,10.2
						c1.3,0.7,1.1,2-0.4,2.8l-17,9.8C313.5,177.8,311.3,177.9,310,177.1z"/>
				</defs>
				<clipPath id="SVGID_22_">
					<use xlink:href="#SVGID_21_"  overflow="visible"/>
				</clipPath>
				<path clip-path="url(#SVGID_22_)" fill="#267FE5" d="M292.7,165.5l17-9.8c1.5-0.8,3.6-0.9,4.9-0.2l17.7,10.2
					c0.3,0.2,0.5,0.4,0.6,0.6c0.4-0.7,0.2-1.4-0.6-1.9l-17.7-10.2c-1.3-0.7-3.5-0.6-4.9,0.2l-17,9.8c-1.1,0.7-1.5,1.6-1,2.3
					C291.9,166.1,292.2,165.8,292.7,165.5z"/>
				<path clip-path="url(#SVGID_22_)" fill="#25BFEC" d="M292.7,167.2l17-9.8c1.5-0.8,3.6-0.9,4.9-0.2l17.7,10.2
					c0.2,0.1,0.4,0.3,0.5,0.4c0.6-0.7,0.4-1.6-0.5-2.1l-17.7-10.2c-1.3-0.7-3.5-0.6-4.9,0.2l-17,9.8c-1.2,0.7-1.5,1.7-0.9,2.4
					C292,167.6,292.3,167.4,292.7,167.2z"/>
				<path clip-path="url(#SVGID_22_)" fill="#18D0F7" d="M292,169.7c0.2-0.2,0.4-0.4,0.7-0.5l17-9.8c1.5-0.8,3.6-0.9,4.9-0.2
					l17.7,10.2c0.1,0.1,0.2,0.2,0.3,0.3c0.7-0.8,0.7-1.7-0.3-2.3l-17.7-10.2c-1.3-0.7-3.5-0.6-4.9,0.2l-17,9.8
					C291.4,167.9,291.1,169,292,169.7z"/>
			</g>
			<g>
				<path fill="#6DE0F6" d="M323.6,221.6l-1.8,1c-0.5,0.3-0.8,0-0.8-0.6v-25.4c0-0.6,0.4-1.3,0.8-1.6l1.8-1c0.5-0.3,0.8,0,0.8,0.6
					V220C324.4,220.6,324.1,221.3,323.6,221.6z"/>
				<path fill="#267FE5" d="M323.6,194l-0.4,0.3v24.9c0,0.6-0.4,1.3-0.8,1.6l-1.4,0.8v0.5c0,0.6,0.4,0.9,0.8,0.6l1.8-1
					c0.5-0.3,0.8-1,0.8-1.6v-25.4C324.4,194,324.1,193.7,323.6,194z"/>
				<path fill="#6DE0F6" d="M330.3,217.7l-1.8,1c-0.5,0.3-0.8,0-0.8-0.6v-25.4c0-0.6,0.4-1.3,0.8-1.6l1.8-1c0.5-0.3,0.8,0,0.8,0.6
					v25.4C331.1,216.8,330.7,217.5,330.3,217.7z"/>
				<path fill="#6DE0F6" d="M337,213.9l-1.8,1c-0.5,0.3-0.8,0-0.8-0.6v-25.4c0-0.6,0.4-1.3,0.8-1.6l1.8-1c0.5-0.3,0.8,0,0.8,0.6
					v25.4C337.8,212.9,337.4,213.6,337,213.9z"/>
				<path fill="#6DE0F6" d="M343.7,210l-1.8,1c-0.5,0.3-0.8,0-0.8-0.6v-25.4c0-0.6,0.4-1.3,0.8-1.6l1.8-1c0.5-0.3,0.8,0,0.8,0.6
					v25.4C344.5,209,344.1,209.7,343.7,210z"/>
				<path fill="#267FE5" d="M330.3,190.1l-0.4,0.3v24.9c0,0.6-0.4,1.3-0.8,1.6l-1.4,0.8v0.5c0,0.6,0.4,0.9,0.8,0.6l1.8-1
					c0.5-0.3,0.8-1,0.8-1.6v-25.4C331.1,190.1,330.7,189.8,330.3,190.1z"/>
				<path fill="#267FE5" d="M337,186.3l-0.4,0.3v24.9c0,0.6-0.4,1.3-0.8,1.6l-1.4,0.8v0.5c0,0.6,0.4,0.9,0.8,0.6l1.8-1
					c0.5-0.3,0.8-1,0.8-1.6v-25.4C337.8,186.3,337.4,186,337,186.3z"/>
				<path fill="#267FE5" d="M343.7,182.4l-0.4,0.3v24.9c0,0.6-0.4,1.3-0.8,1.6L341,210v0.5c0,0.6,0.4,0.9,0.8,0.6l1.8-1
					c0.5-0.3,0.8-1,0.8-1.6V183C344.5,182.4,344.1,182.1,343.7,182.4z"/>
			</g>
			<path fill="#480689" d="M305.4,224.7c-0.2,0-0.4-0.1-0.7-0.2L281,210.9c-0.8-0.5-1.5-1.7-1.5-2.8v-26.8c0-0.6,0.2-1.1,0.6-1.3
				c0.3-0.2,0.7-0.2,1.1,0.1l23.7,13.7c0.8,0.5,1.5,1.7,1.5,2.8v26.8c0,0.6-0.2,1.1-0.6,1.3C305.7,224.7,305.5,224.7,305.4,224.7z
				 M305,224c0.2,0.1,0.4,0.2,0.6,0.1c0.2-0.1,0.3-0.4,0.3-0.8v-26.8c0-0.9-0.5-1.9-1.2-2.3L281,180.5c-0.2-0.1-0.4-0.2-0.6-0.1
				c-0.2,0.1-0.3,0.4-0.3,0.8v26.8c0,0.9,0.5,1.9,1.2,2.3L305,224z"/>
			<g>
				<path fill="#6DE0F6" d="M284.2,186.5c0,0.7-0.5,1-1.2,0.7c-0.6-0.4-1.2-1.3-1.2-2c0-0.7,0.5-1,1.2-0.7
					C283.7,184.9,284.2,185.8,284.2,186.5z"/>
				<path fill="#6DE0F6" d="M284.2,190.2c0,0.7-0.5,1-1.2,0.7c-0.6-0.4-1.2-1.3-1.2-2c0-0.7,0.5-1,1.2-0.7
					C283.7,188.6,284.2,189.5,284.2,190.2z"/>
				<path fill="#6DE0F6" d="M284.2,194c0,0.7-0.5,1-1.2,0.7c-0.6-0.4-1.2-1.3-1.2-2c0-0.7,0.5-1,1.2-0.7
					C283.7,192.4,284.2,193.2,284.2,194z"/>
				<path fill="#267FE5" d="M283.6,194.2c-0.6-0.4-1.2-1.3-1.2-2c0-0.1,0-0.3,0.1-0.4c-0.4,0-0.6,0.3-0.6,0.8c0,0.7,0.5,1.6,1.2,2
					c0.5,0.3,0.9,0.2,1.1-0.3C284,194.3,283.8,194.3,283.6,194.2z"/>
				<path fill="#267FE5" d="M283.6,190.5c-0.6-0.4-1.2-1.3-1.2-2c0-0.1,0-0.3,0.1-0.4c-0.4,0-0.6,0.3-0.6,0.8c0,0.7,0.5,1.6,1.2,2
					c0.5,0.3,0.9,0.2,1.1-0.3C284,190.6,283.8,190.6,283.6,190.5z"/>
				<path fill="#267FE5" d="M283.6,186.7c-0.6-0.4-1.2-1.3-1.2-2c0-0.1,0-0.3,0.1-0.4c-0.4,0-0.6,0.3-0.6,0.8c0,0.7,0.5,1.6,1.2,2
					c0.5,0.3,0.9,0.2,1.1-0.3C284,186.9,283.8,186.8,283.6,186.7z"/>
			</g>
			<path fill="#480689" d="M303.2,211.3l-0.8-0.4c-0.2-0.1-0.4-0.5-0.4-0.8v-3.7c0-0.3,0.2-0.5,0.4-0.3l0.8,0.4
				c0.2,0.1,0.4,0.5,0.4,0.8v3.7C303.7,211.3,303.5,211.5,303.2,211.3z"/>
		</g>
		<linearGradient id="SVGID_23_" gradientUnits="userSpaceOnUse" x1="312.3076" y1="177.6326" x2="312.3076" y2="77.1342">
			<stop  offset="1.075270e-02" style="stop-color:#25BFEC"/>
			<stop  offset="4.534507e-02" style="stop-color:#24B4E1"/>
			<stop  offset="0.2186" style="stop-color:#1F83B0"/>
			<stop  offset="0.3902" style="stop-color:#1B5A86"/>
			<stop  offset="0.5567" style="stop-color:#173A66"/>
			<stop  offset="0.7168" style="stop-color:#152350"/>
			<stop  offset="0.8678" style="stop-color:#131642"/>
			<stop  offset="1" style="stop-color:#13113D"/>
		</linearGradient>
		<path opacity="0.2" fill="url(#SVGID_23_)" d="M333.1,77.1h-41.6v88.6l0,0c0,0.5,0.3,0.9,0.8,1.2l17.7,10.2
			c1.3,0.7,3.4,0.6,4.9-0.2l17-9.8c0.8-0.4,1.2-1,1.2-1.5l0,0V77.1z"/>
		<linearGradient id="SVGID_24_" gradientUnits="userSpaceOnUse" x1="312.3076" y1="176.5354" x2="312.3076" y2="85.5811">
			<stop  offset="1.075270e-02" style="stop-color:#70E8FC"/>
			<stop  offset="0.1484" style="stop-color:#5AB5CF"/>
			<stop  offset="0.3028" style="stop-color:#4584A3"/>
			<stop  offset="0.4559" style="stop-color:#335A7E"/>
			<stop  offset="0.6045" style="stop-color:#253A62"/>
			<stop  offset="0.7474" style="stop-color:#1B244D"/>
			<stop  offset="0.882" style="stop-color:#151641"/>
			<stop  offset="1" style="stop-color:#13113D"/>
		</linearGradient>
		<path opacity="0.25" fill="url(#SVGID_24_)" d="M331.1,85.6h-37.6v80.2l0,0c0,0.4,0.3,0.8,0.8,1.1l16,9.2c1.1,0.7,3.1,0.6,4.4-0.2
			l15.3-8.9c0.7-0.4,1-0.9,1.1-1.4l0,0V85.6z"/>
		<g>
			<circle fill="#6DE0F6" cx="302.4" cy="158.3" r="1.5"/>
			<circle fill="#6DE0F6" cx="314.1" cy="147.9" r="2.6"/>
			<circle fill="#6DE0F6" cx="310.9" cy="146.2" r="0.7"/>
			<circle fill="#6DE0F6" cx="322.4" cy="133" r="1.3"/>
			<circle fill="#6DE0F6" cx="315.4" cy="121.8" r="0.9"/>
			<circle fill="#6DE0F6" cx="304" cy="114.6" r="1.7"/>
			<path fill="#6DE0F6" d="M309.9,100.4c0,0.5-0.4,0.9-0.9,0.9c-0.5,0-0.9-0.4-0.9-0.9c0-0.5,0.4-0.9,0.9-0.9
				C309.5,99.5,309.9,99.9,309.9,100.4z"/>
			<path fill="#6DE0F6" d="M317.2,106.7c0,0.6-0.5,1.1-1.1,1.1c-0.6,0-1.1-0.5-1.1-1.1c0-0.6,0.5-1.1,1.1-1.1
				C316.7,105.6,317.2,106.1,317.2,106.7z"/>
			<path fill="#6DE0F6" d="M318,104.4c0,0.3-0.2,0.5-0.5,0.5s-0.5-0.2-0.5-0.5s0.2-0.5,0.5-0.5S318,104.1,318,104.4z"/>
			<path fill="#6DE0F6" d="M325,92.8c0,0.9-0.7,1.6-1.6,1.6c-0.9,0-1.6-0.7-1.6-1.6c0-0.9,0.7-1.6,1.6-1.6
				C324.3,91.3,325,92,325,92.8z"/>
		</g>
	</g>
	<g>
		<g>
			<path opacity="0.6" fill="#0C0F38" d="M420.7,270.8l-32.8-18.9c-2.3-1.3-2-3.7,0.7-5.2l31.5-18.2c2.7-1.6,6.8-1.7,9.1-0.4
				l32.8,18.9c2.3,1.3,2,3.7-0.7,5.2l-31.5,18.2C427.1,272,423,272.2,420.7,270.8z"/>
			<linearGradient id="SVGID_25_" gradientUnits="userSpaceOnUse" x1="379.0947" y1="249.4899" x2="470.6914" y2="249.4899">
				<stop  offset="0" style="stop-color:#D4088C"/>
				<stop  offset="0.2258" style="stop-color:#D4088C"/>
				<stop  offset="0.5108" style="stop-color:#6EE1F8"/>
				<stop  offset="0.7796" style="stop-color:#6EE8FC"/>
				<stop  offset="1" style="stop-color:#6EE8FC"/>
			</linearGradient>
			<path fill="url(#SVGID_25_)" d="M424.6,276.1c-1.8,0-3.5-0.4-4.8-1.1l-38.6-22.3c-1.3-0.8-2-1.8-2-3c0-1.4,1-2.8,2.8-3.8
				l37.1-21.4c3.3-1.9,8.2-2.1,11.1-0.4l38.6,22.3c1.3,0.8,2,1.8,2,3c0,1.4-1,2.8-2.8,3.8l-37.1,21.4
				C429,275.6,426.8,276.1,424.6,276.1z M420.1,274.3c2.6,1.5,7.3,1.3,10.3-0.4l37.1-21.4c1.5-0.9,2.4-2,2.4-3.2
				c0-0.9-0.6-1.7-1.7-2.3l-38.6-22.3c-2.6-1.5-7.3-1.3-10.3,0.4l-37.1,21.4c-1.5,0.9-2.4,2-2.4,3.2c0,0.9,0.6,1.7,1.7,2.3
				L420.1,274.3z"/>
			<linearGradient id="SVGID_26_" gradientUnits="userSpaceOnUse" x1="379.0539" y1="194.2231" x2="472.9846" y2="194.2231">
				<stop  offset="0" style="stop-color:#A31FA9"/>
				<stop  offset="6.679147e-02" style="stop-color:#8B17A0"/>
				<stop  offset="0.1494" style="stop-color:#740F98"/>
				<stop  offset="0.2393" style="stop-color:#640A92"/>
				<stop  offset="0.3408" style="stop-color:#5B078F"/>
				<stop  offset="0.4785" style="stop-color:#58068E"/>
				<stop  offset="0.6264" style="stop-color:#4D22A3"/>
				<stop  offset="0.9436" style="stop-color:#3168DA"/>
				<stop  offset="1" style="stop-color:#2C75E4"/>
			</linearGradient>
			<path fill="url(#SVGID_26_)" d="M463.4,165.3h-16.2l-18.1-10.4c-2.3-1.3-6.4-1.2-9.1,0.4l-17.4,10.1h-16.2v47h0
				c-0.1,0.9,0.4,1.8,1.6,2.4l32.8,18.9c2.3,1.3,6.4,1.2,9.1-0.4l31.5-18.2c1.4-0.8,2.1-1.8,2.2-2.8h0V165.3z"/>
			<linearGradient id="SVGID_27_" gradientUnits="userSpaceOnUse" x1="379.0539" y1="223.0273" x2="472.9846" y2="223.0273">
				<stop  offset="0" style="stop-color:#D4088C"/>
				<stop  offset="0.2258" style="stop-color:#D4088C"/>
				<stop  offset="0.5108" style="stop-color:#6EE1F8"/>
				<stop  offset="0.7796" style="stop-color:#6EE8FC"/>
				<stop  offset="1" style="stop-color:#6EE8FC"/>
			</linearGradient>
			<path fill="url(#SVGID_27_)" d="M461.2,214.3l-31.5,18.2c-2.7,1.6-6.8,1.7-9.1,0.4L387.9,214c-1.1-0.6-1.6-1.5-1.6-2.4h0v0.8h0
				c-0.1,0.9,0.4,1.8,1.6,2.4l32.8,18.9c2.3,1.3,6.4,1.2,9.1-0.4l31.5-18.2c1.4-0.8,2.1-1.8,2.2-2.8h0v-0.8h0
				C463.4,212.5,462.6,213.5,461.2,214.3z"/>
			<path fill="#D4088C" d="M387.4,213L387.4,213l0-47h16.2L421,156c2.7-1.6,6.8-1.7,9.1-0.4l18.1,10.4h15.2v-0.8h-16.2l-18.1-10.4
				c-2.3-1.3-6.4-1.2-9.1,0.4l-17.4,10.1h-16.2v47h0c-0.1,0.9,0.4,1.8,1.6,2.4l0.2,0.1C387.6,214.3,387.3,213.7,387.4,213z"/>
			<path fill="#6EE8FC" d="M462.5,166.1v47h0c0,0.6-0.3,1.1-0.8,1.7c1.1-0.7,1.6-1.6,1.7-2.5h0v-46.9
				C463.1,165.6,462.8,165.8,462.5,166.1z"/>
			
				<linearGradient id="SVGID_28_" gradientUnits="userSpaceOnUse" x1="603.318" y1="661.7607" x2="647.6253" y2="623.3895" gradientTransform="matrix(0.866 0.5 -1 0.5774 525.0016 -518.4943)">
				<stop  offset="0" style="stop-color:#8D139B"/>
				<stop  offset="0.1651" style="stop-color:#851BA1"/>
				<stop  offset="0.4284" style="stop-color:#6E33B2"/>
				<stop  offset="0.7551" style="stop-color:#4958CD"/>
				<stop  offset="1" style="stop-color:#2979E4"/>
			</linearGradient>
			<path fill="url(#SVGID_28_)" d="M420.7,186.6l-32.8-18.9c-2.3-1.3-2-3.7,0.7-5.2l31.5-18.2c2.7-1.6,6.8-1.7,9.1-0.4l32.8,18.9
				c2.3,1.3,2,3.7-0.7,5.2l-31.5,18.2C427.1,187.8,423,188,420.7,186.6z"/>
			<path fill="#6EE8FC" d="M461.9,162.8l-32.8-18.9c-1.2-0.7-2.9-1-4.6-0.9c1.2,0.1,2.4,0.4,3.3,0.9l32.8,18.9
				c2.3,1.3,2,3.7-0.7,5.2l-31.5,18.2c-1.3,0.7-2.9,1.2-4.5,1.3c2,0.1,4.1-0.3,5.8-1.3l31.5-18.2
				C463.9,166.5,464.2,164.2,461.9,162.8z"/>
			
				<linearGradient id="SVGID_29_" gradientUnits="userSpaceOnUse" x1="609.0975" y1="656.7555" x2="642.0842" y2="628.1882" gradientTransform="matrix(0.866 0.5 -1 0.5774 525.0016 -518.4943)">
				<stop  offset="0" style="stop-color:#630692"/>
				<stop  offset="0.2262" style="stop-color:#5B0E94"/>
				<stop  offset="0.587" style="stop-color:#432399"/>
				<stop  offset="1" style="stop-color:#2142A1"/>
			</linearGradient>
			<path fill="url(#SVGID_29_)" d="M421.8,181.2l-24.4-14.1c-1.7-1-1.5-2.8,0.5-3.9l23.4-13.5c2-1.2,5-1.3,6.8-0.3l24.4,14.1
				c1.7,1,1.5,2.8-0.5,3.9l-23.4,13.5C426.5,182,423.5,182.2,421.8,181.2z"/>
			<path fill="#6DE0F6" d="M422.6,176.8l-17.7-10.2c-1.3-0.7-1.1-2,0.4-2.8l17-9.8c1.5-0.8,3.6-0.9,4.9-0.2l17.7,10.2
				c1.3,0.7,1.1,2-0.4,2.8l-17,9.8C426.1,177.4,423.9,177.5,422.6,176.8z"/>
			<path fill="#D4088C" d="M422.1,186.6l-32.8-18.9c-2.3-1.3-2-3.7,0.7-5.2l31.5-18.2c1.3-0.7,2.9-1.2,4.4-1.3
				c-2-0.1-4.2,0.3-5.9,1.3l-31.5,18.2c-2.7,1.6-3,3.9-0.7,5.2l32.8,18.9c1.2,0.7,2.9,1,4.7,0.9C424.1,187.4,423,187.1,422.1,186.6z
				"/>
			<g>
				<defs>
					<path id="SVGID_30_" d="M422.6,176.8l-17.7-10.2c-1.3-0.7-1.1-2,0.4-2.8l17-9.8c1.5-0.8,3.6-0.9,4.9-0.2l17.7,10.2
						c1.3,0.7,1.1,2-0.4,2.8l-17,9.8C426.1,177.4,423.9,177.5,422.6,176.8z"/>
				</defs>
				<clipPath id="SVGID_31_">
					<use xlink:href="#SVGID_30_"  overflow="visible"/>
				</clipPath>
				<path clip-path="url(#SVGID_31_)" fill="#267FE5" d="M405.3,165.1l17-9.8c1.5-0.8,3.6-0.9,4.9-0.2l17.7,10.2
					c0.3,0.2,0.5,0.4,0.6,0.6c0.4-0.7,0.2-1.4-0.6-1.9l-17.7-10.2c-1.3-0.7-3.5-0.6-4.9,0.2l-17,9.8c-1.1,0.7-1.5,1.6-1,2.3
					C404.5,165.7,404.8,165.4,405.3,165.1z"/>
				<path clip-path="url(#SVGID_31_)" fill="#25BFEC" d="M405.3,166.8l17-9.8c1.5-0.8,3.6-0.9,4.9-0.2l17.7,10.2
					c0.2,0.1,0.4,0.3,0.5,0.4c0.6-0.7,0.4-1.6-0.5-2.1l-17.7-10.2c-1.3-0.7-3.5-0.6-4.9,0.2l-17,9.8c-1.2,0.7-1.5,1.7-0.9,2.4
					C404.6,167.3,404.9,167,405.3,166.8z"/>
				<path clip-path="url(#SVGID_31_)" fill="#18D0F7" d="M404.6,169.4c0.2-0.2,0.4-0.4,0.7-0.5l17-9.8c1.5-0.8,3.6-0.9,4.9-0.2
					l17.7,10.2c0.1,0.1,0.2,0.2,0.3,0.3c0.7-0.8,0.7-1.7-0.3-2.3l-17.7-10.2c-1.3-0.7-3.5-0.6-4.9,0.2l-17,9.8
					C404,167.5,403.7,168.6,404.6,169.4z"/>
			</g>
			<g>
				<path fill="#6DE0F6" d="M436.2,221.2l-1.8,1c-0.5,0.3-0.8,0-0.8-0.6v-25.4c0-0.6,0.4-1.3,0.8-1.6l1.8-1c0.5-0.3,0.8,0,0.8,0.6
					v25.4C437,220.3,436.7,221,436.2,221.2z"/>
				<path fill="#267FE5" d="M436.2,193.6l-0.4,0.3v24.9c0,0.6-0.4,1.3-0.8,1.6l-1.4,0.8v0.5c0,0.6,0.4,0.9,0.8,0.6l1.8-1
					c0.5-0.3,0.8-1,0.8-1.6v-25.4C437,193.6,436.7,193.3,436.2,193.6z"/>
				<path fill="#6DE0F6" d="M442.9,217.4l-1.8,1c-0.5,0.3-0.8,0-0.8-0.6v-25.4c0-0.6,0.4-1.3,0.8-1.6l1.8-1c0.5-0.3,0.8,0,0.8,0.6
					v25.4C443.7,216.4,443.4,217.1,442.9,217.4z"/>
				<path fill="#6DE0F6" d="M449.6,213.5l-1.8,1c-0.5,0.3-0.8,0-0.8-0.6v-25.4c0-0.6,0.4-1.3,0.8-1.6l1.8-1c0.5-0.3,0.8,0,0.8,0.6
					v25.4C450.4,212.5,450,213.2,449.6,213.5z"/>
				<path fill="#6DE0F6" d="M456.3,209.7l-1.8,1c-0.5,0.3-0.8,0-0.8-0.6v-25.4c0-0.6,0.4-1.3,0.8-1.6l1.8-1c0.5-0.3,0.8,0,0.8,0.6
					V208C457.1,208.7,456.7,209.4,456.3,209.7z"/>
				<path fill="#267FE5" d="M442.9,189.8l-0.4,0.3v24.9c0,0.6-0.4,1.3-0.8,1.6l-1.4,0.8v0.5c0,0.6,0.4,0.9,0.8,0.6l1.8-1
					c0.5-0.3,0.8-1,0.8-1.6v-25.4C443.7,189.8,443.4,189.5,442.9,189.8z"/>
				<path fill="#267FE5" d="M449.6,185.9l-0.4,0.3v24.9c0,0.6-0.4,1.3-0.8,1.6l-1.4,0.8v0.5c0,0.6,0.4,0.9,0.8,0.6l1.8-1
					c0.5-0.3,0.8-1,0.8-1.6v-25.4C450.4,185.9,450,185.6,449.6,185.9z"/>
				<path fill="#267FE5" d="M456.3,182l-0.4,0.3v24.9c0,0.6-0.4,1.3-0.8,1.6l-1.4,0.8v0.5c0,0.6,0.4,0.9,0.8,0.6l1.8-1
					c0.5-0.3,0.8-1,0.8-1.6v-25.4C457.1,182,456.7,181.8,456.3,182z"/>
			</g>
			<path fill="#480689" d="M418,224.4c-0.2,0-0.4-0.1-0.7-0.2l-23.7-13.7c-0.8-0.5-1.5-1.7-1.5-2.8v-26.8c0-0.6,0.2-1.1,0.6-1.3
				c0.3-0.2,0.7-0.2,1.1,0.1l23.7,13.7c0.8,0.5,1.5,1.7,1.5,2.8v26.8c0,0.6-0.2,1.1-0.6,1.3C418.3,224.3,418.1,224.4,418,224.4z
				 M393.3,180c-0.1,0-0.1,0-0.2,0.1c-0.2,0.1-0.3,0.4-0.3,0.8v26.8c0,0.9,0.5,1.9,1.2,2.3l23.7,13.7c0.2,0.1,0.4,0.2,0.6,0.1
				c0.2-0.1,0.3-0.4,0.3-0.8v-26.8c0-0.9-0.5-1.9-1.2-2.3l-23.7-13.7C393.5,180.1,393.4,180,393.3,180z"/>
			<g>
				<path fill="#6DE0F6" d="M396.8,186.1c0,0.7-0.5,1-1.2,0.7c-0.6-0.4-1.2-1.3-1.2-2s0.5-1,1.2-0.7
					C396.3,184.5,396.8,185.4,396.8,186.1z"/>
				<path fill="#6DE0F6" d="M396.8,189.9c0,0.7-0.5,1-1.2,0.7c-0.6-0.4-1.2-1.3-1.2-2s0.5-1,1.2-0.7
					C396.3,188.3,396.8,189.1,396.8,189.9z"/>
				<path fill="#6DE0F6" d="M396.8,193.6c0,0.7-0.5,1-1.2,0.7c-0.6-0.4-1.2-1.3-1.2-2c0-0.7,0.5-1,1.2-0.7
					C396.3,192,396.8,192.9,396.8,193.6z"/>
				<path fill="#267FE5" d="M396.2,193.8c-0.6-0.4-1.2-1.3-1.2-2c0-0.1,0-0.3,0.1-0.4c-0.4,0-0.6,0.3-0.6,0.8c0,0.7,0.5,1.6,1.2,2
					c0.5,0.3,0.9,0.2,1.1-0.3C396.6,194,396.4,193.9,396.2,193.8z"/>
				<path fill="#267FE5" d="M396.2,190.1c-0.6-0.4-1.2-1.3-1.2-2c0-0.1,0-0.3,0.1-0.4c-0.4,0-0.6,0.3-0.6,0.8c0,0.7,0.5,1.6,1.2,2
					c0.5,0.3,0.9,0.2,1.1-0.3C396.6,190.2,396.4,190.2,396.2,190.1z"/>
				<path fill="#267FE5" d="M396.2,186.4c-0.6-0.4-1.2-1.3-1.2-2c0-0.1,0-0.3,0.1-0.4c-0.4,0-0.6,0.3-0.6,0.8c0,0.7,0.5,1.6,1.2,2
					c0.5,0.3,0.9,0.2,1.1-0.3C396.6,186.5,396.4,186.5,396.2,186.4z"/>
			</g>
			<path fill="#480689" d="M415.8,211l-0.8-0.4c-0.2-0.1-0.4-0.5-0.4-0.8V206c0-0.3,0.2-0.5,0.4-0.3l0.8,0.4
				c0.2,0.1,0.4,0.5,0.4,0.8v3.7C416.3,211,416.1,211.1,415.8,211z"/>
		</g>
		<linearGradient id="SVGID_32_" gradientUnits="userSpaceOnUse" x1="424.9086" y1="177.2694" x2="424.9086" y2="76.771">
			<stop  offset="1.075270e-02" style="stop-color:#25BFEC"/>
			<stop  offset="4.534507e-02" style="stop-color:#24B4E1"/>
			<stop  offset="0.2186" style="stop-color:#1F83B0"/>
			<stop  offset="0.3902" style="stop-color:#1B5A86"/>
			<stop  offset="0.5567" style="stop-color:#173A66"/>
			<stop  offset="0.7168" style="stop-color:#152350"/>
			<stop  offset="0.8678" style="stop-color:#131642"/>
			<stop  offset="1" style="stop-color:#13113D"/>
		</linearGradient>
		<path opacity="0.2" fill="url(#SVGID_32_)" d="M445.7,76.8h-41.6v88.6l0,0c0,0.5,0.3,0.9,0.8,1.2l17.7,10.2
			c1.3,0.7,3.4,0.6,4.9-0.2l17-9.8c0.8-0.4,1.2-1,1.2-1.5l0,0V76.8z"/>
		<linearGradient id="SVGID_33_" gradientUnits="userSpaceOnUse" x1="424.9086" y1="176.1722" x2="424.9086" y2="85.218">
			<stop  offset="1.075270e-02" style="stop-color:#70E8FC"/>
			<stop  offset="0.1484" style="stop-color:#5AB5CF"/>
			<stop  offset="0.3028" style="stop-color:#4584A3"/>
			<stop  offset="0.4559" style="stop-color:#335A7E"/>
			<stop  offset="0.6045" style="stop-color:#253A62"/>
			<stop  offset="0.7474" style="stop-color:#1B244D"/>
			<stop  offset="0.882" style="stop-color:#151641"/>
			<stop  offset="1" style="stop-color:#13113D"/>
		</linearGradient>
		<path opacity="0.25" fill="url(#SVGID_33_)" d="M443.7,85.2h-37.6v80.2l0,0c0,0.4,0.3,0.8,0.8,1.1l16,9.2c1.1,0.7,3.1,0.6,4.4-0.2
			l15.3-8.9c0.7-0.4,1-0.9,1.1-1.4l0,0V85.2z"/>
		<g>
			<path fill="#6DE0F6" d="M416.6,157.9c0,0.9-0.7,1.5-1.5,1.5c-0.9,0-1.5-0.7-1.5-1.5c0-0.9,0.7-1.5,1.5-1.5
				C415.9,156.4,416.6,157.1,416.6,157.9z"/>
			<circle fill="#6DE0F6" cx="426.7" cy="147.6" r="2.6"/>
			<path fill="#6DE0F6" d="M424.1,145.9c0,0.4-0.3,0.7-0.7,0.7c-0.4,0-0.7-0.3-0.7-0.7c0-0.4,0.3-0.7,0.7-0.7
				C423.8,145.2,424.1,145.5,424.1,145.9z"/>
			<circle fill="#6DE0F6" cx="435" cy="132.6" r="1.3"/>
			<circle fill="#6DE0F6" cx="428" cy="121.4" r="0.9"/>
			<path fill="#6DE0F6" d="M418.3,114.2c0,0.9-0.8,1.7-1.7,1.7c-0.9,0-1.7-0.8-1.7-1.7c0-0.9,0.8-1.7,1.7-1.7
				C417.5,112.5,418.3,113.3,418.3,114.2z"/>
			<path fill="#6DE0F6" d="M422.5,100.1c0,0.5-0.4,0.9-0.9,0.9s-0.9-0.4-0.9-0.9c0-0.5,0.4-0.9,0.9-0.9S422.5,99.6,422.5,100.1z"/>
			<circle fill="#6DE0F6" cx="428.7" cy="106.4" r="1.1"/>
			<path fill="#6DE0F6" d="M430.6,104c0,0.3-0.2,0.5-0.5,0.5c-0.3,0-0.5-0.2-0.5-0.5c0-0.3,0.2-0.5,0.5-0.5
				C430.4,103.5,430.6,103.7,430.6,104z"/>
			<path fill="#6DE0F6" d="M437.6,92.5c0,0.9-0.7,1.6-1.6,1.6c-0.9,0-1.6-0.7-1.6-1.6c0-0.9,0.7-1.6,1.6-1.6
				C436.9,90.9,437.6,91.6,437.6,92.5z"/>
		</g>
	</g>
	<g>
		<g>
			<path opacity="0.6" fill="#0C0F38" d="M363.9,306.1l-32.8-18.9c-2.3-1.3-2-3.7,0.7-5.2l31.5-18.2c2.7-1.6,6.8-1.7,9.1-0.4
				l32.8,18.9c2.3,1.3,2,3.7-0.7,5.2L373,305.7C370.3,307.3,366.2,307.5,363.9,306.1z"/>
			<linearGradient id="SVGID_34_" gradientUnits="userSpaceOnUse" x1="322.293" y1="284.7733" x2="413.8906" y2="284.7733">
				<stop  offset="0" style="stop-color:#D4088C"/>
				<stop  offset="0.2258" style="stop-color:#D4088C"/>
				<stop  offset="0.5108" style="stop-color:#6EE1F8"/>
				<stop  offset="0.7796" style="stop-color:#6EE8FC"/>
				<stop  offset="1" style="stop-color:#6EE8FC"/>
			</linearGradient>
			<path fill="url(#SVGID_34_)" d="M367.8,311.4c-1.8,0-3.5-0.4-4.8-1.1L324.3,288c-1.3-0.8-2-1.8-2-3c0-1.4,1-2.8,2.8-3.8
				l37.1-21.4c3.3-1.9,8.2-2.1,11.1-0.4l38.6,22.3c1.3,0.8,2,1.8,2,3c0,1.4-1,2.8-2.8,3.8L374,309.8
				C372.2,310.8,369.9,311.4,367.8,311.4z M363.3,309.6c2.6,1.5,7.3,1.3,10.3-0.4l37.1-21.4c1.5-0.9,2.4-2,2.4-3.2
				c0-0.9-0.6-1.7-1.7-2.3L372.9,260c-2.6-1.5-7.3-1.3-10.3,0.4l-37.1,21.4c-1.5,0.9-2.4,2-2.4,3.2c0,0.9,0.6,1.7,1.7,2.3
				L363.3,309.6z"/>
			<linearGradient id="SVGID_35_" gradientUnits="userSpaceOnUse" x1="322.2526" y1="229.5062" x2="416.1832" y2="229.5062">
				<stop  offset="0" style="stop-color:#A31FA9"/>
				<stop  offset="6.679147e-02" style="stop-color:#8B17A0"/>
				<stop  offset="0.1494" style="stop-color:#740F98"/>
				<stop  offset="0.2393" style="stop-color:#640A92"/>
				<stop  offset="0.3408" style="stop-color:#5B078F"/>
				<stop  offset="0.4785" style="stop-color:#58068E"/>
				<stop  offset="0.6264" style="stop-color:#4D22A3"/>
				<stop  offset="0.9436" style="stop-color:#3168DA"/>
				<stop  offset="1" style="stop-color:#2C75E4"/>
			</linearGradient>
			<path fill="url(#SVGID_35_)" d="M406.6,200.5h-16.2l-18.1-10.4c-2.3-1.3-6.4-1.2-9.1,0.4l-17.4,10.1h-16.2v47h0
				c-0.1,0.9,0.4,1.8,1.6,2.4l32.8,18.9c2.3,1.3,6.4,1.2,9.1-0.4l31.5-18.2c1.4-0.8,2.1-1.8,2.2-2.8h0V200.5z"/>
			<linearGradient id="SVGID_36_" gradientUnits="userSpaceOnUse" x1="322.2526" y1="258.3104" x2="416.1833" y2="258.3104">
				<stop  offset="0" style="stop-color:#D4088C"/>
				<stop  offset="0.2258" style="stop-color:#D4088C"/>
				<stop  offset="0.5108" style="stop-color:#6EE1F8"/>
				<stop  offset="0.7796" style="stop-color:#6EE8FC"/>
				<stop  offset="1" style="stop-color:#6EE8FC"/>
			</linearGradient>
			<path fill="url(#SVGID_36_)" d="M404.4,249.6L373,267.8c-2.7,1.6-6.8,1.7-9.1,0.4l-32.8-18.9c-1.1-0.6-1.6-1.5-1.6-2.4h0v0.8h0
				c-0.1,0.9,0.4,1.8,1.6,2.4l32.8,18.9c2.3,1.3,6.4,1.2,9.1-0.4l31.5-18.2c1.4-0.8,2.1-1.8,2.2-2.8h0v-0.8h0
				C406.6,247.8,405.8,248.8,404.4,249.6z"/>
			<path fill="#D4088C" d="M330.6,248.3L330.6,248.3l0-47h16.2l17.4-10.1c2.7-1.6,6.8-1.7,9.1-0.4l18.1,10.4h15.2v-0.8h-16.2
				l-18.1-10.4c-2.3-1.3-6.4-1.2-9.1,0.4l-17.4,10.1h-16.2v47h0c-0.1,0.9,0.4,1.8,1.6,2.4l0.2,0.1
				C330.8,249.6,330.5,248.9,330.6,248.3z"/>
			<path fill="#6EE8FC" d="M405.7,201.4v47h0c0,0.6-0.3,1.1-0.8,1.7c1.1-0.7,1.6-1.6,1.7-2.5h0v-46.9
				C406.3,200.9,406,201.1,405.7,201.4z"/>
			
				<linearGradient id="SVGID_37_" gradientUnits="userSpaceOnUse" x1="605.804" y1="720.7149" x2="650.1113" y2="682.3436" gradientTransform="matrix(0.866 0.5 -1 0.5774 525.0016 -518.4943)">
				<stop  offset="0" style="stop-color:#8D139B"/>
				<stop  offset="0.1651" style="stop-color:#851BA1"/>
				<stop  offset="0.4284" style="stop-color:#6E33B2"/>
				<stop  offset="0.7551" style="stop-color:#4958CD"/>
				<stop  offset="1" style="stop-color:#2979E4"/>
			</linearGradient>
			<path fill="url(#SVGID_37_)" d="M363.9,221.9L331.1,203c-2.3-1.3-2-3.7,0.7-5.2l31.5-18.2c2.7-1.6,6.8-1.7,9.1-0.4l32.8,18.9
				c2.3,1.3,2,3.7-0.7,5.2L373,221.5C370.3,223.1,366.2,223.2,363.9,221.9z"/>
			<path fill="#6EE8FC" d="M405.1,198.1l-32.8-18.9c-1.2-0.7-2.9-1-4.6-0.9c1.2,0.1,2.4,0.4,3.3,0.9l32.8,18.9
				c2.3,1.3,2,3.7-0.7,5.2l-31.5,18.2c-1.3,0.7-2.9,1.2-4.5,1.3c2,0.1,4.1-0.3,5.8-1.3l31.5-18.2
				C407.1,201.8,407.4,199.5,405.1,198.1z"/>
			
				<linearGradient id="SVGID_38_" gradientUnits="userSpaceOnUse" x1="611.5834" y1="715.7097" x2="644.5701" y2="687.1423" gradientTransform="matrix(0.866 0.5 -1 0.5774 525.0016 -518.4943)">
				<stop  offset="0" style="stop-color:#630692"/>
				<stop  offset="0.2262" style="stop-color:#5B0E94"/>
				<stop  offset="0.587" style="stop-color:#432399"/>
				<stop  offset="1" style="stop-color:#2142A1"/>
			</linearGradient>
			<path fill="url(#SVGID_38_)" d="M365,216.4l-24.4-14.1c-1.7-1-1.5-2.8,0.5-3.9l23.4-13.5c2-1.2,5-1.3,6.8-0.3l24.4,14.1
				c1.7,1,1.5,2.8-0.5,3.9l-23.4,13.5C369.7,217.3,366.7,217.4,365,216.4z"/>
			<path fill="#6DE0F6" d="M365.8,212.1l-17.7-10.2c-1.3-0.7-1.1-2,0.4-2.8l17-9.8c1.5-0.8,3.6-0.9,4.9-0.2l17.7,10.2
				c1.3,0.7,1.1,2-0.4,2.8l-17,9.8C369.3,212.7,367.1,212.8,365.8,212.1z"/>
			<path fill="#D4088C" d="M365.3,221.9L332.6,203c-2.3-1.3-2-3.7,0.7-5.2l31.5-18.2c1.3-0.7,2.9-1.2,4.4-1.3
				c-2-0.1-4.2,0.3-5.9,1.3l-31.5,18.2c-2.7,1.6-3,3.9-0.7,5.2l32.8,18.9c1.2,0.7,2.9,1,4.7,0.9
				C367.3,222.7,366.2,222.4,365.3,221.9z"/>
			<g>
				<defs>
					<path id="SVGID_39_" d="M365.8,212.1l-17.7-10.2c-1.3-0.7-1.1-2,0.4-2.8l17-9.8c1.5-0.8,3.6-0.9,4.9-0.2l17.7,10.2
						c1.3,0.7,1.1,2-0.4,2.8l-17,9.8C369.3,212.7,367.1,212.8,365.8,212.1z"/>
				</defs>
				<clipPath id="SVGID_40_">
					<use xlink:href="#SVGID_39_"  overflow="visible"/>
				</clipPath>
				<path clip-path="url(#SVGID_40_)" fill="#267FE5" d="M348.5,200.4l17-9.8c1.5-0.8,3.6-0.9,4.9-0.2l17.7,10.2
					c0.3,0.2,0.5,0.4,0.6,0.6c0.4-0.7,0.2-1.4-0.6-1.9L370.4,189c-1.3-0.7-3.5-0.6-4.9,0.2l-17,9.8c-1.1,0.7-1.5,1.6-1,2.3
					C347.7,201,348,200.7,348.5,200.4z"/>
				<path clip-path="url(#SVGID_40_)" fill="#25BFEC" d="M348.5,202.1l17-9.8c1.5-0.8,3.6-0.9,4.9-0.2l17.7,10.2
					c0.2,0.1,0.4,0.3,0.5,0.4c0.6-0.7,0.4-1.6-0.5-2.1l-17.7-10.2c-1.3-0.7-3.5-0.6-4.9,0.2l-17,9.8c-1.2,0.7-1.5,1.7-0.9,2.4
					C347.8,202.5,348.1,202.3,348.5,202.1z"/>
				<path clip-path="url(#SVGID_40_)" fill="#18D0F7" d="M347.8,204.7c0.2-0.2,0.4-0.4,0.7-0.5l17-9.8c1.5-0.8,3.6-0.9,4.9-0.2
					l17.7,10.2c0.1,0.1,0.2,0.2,0.3,0.3c0.7-0.8,0.7-1.7-0.3-2.3l-17.7-10.2c-1.3-0.7-3.5-0.6-4.9,0.2l-17,9.8
					C347.2,202.8,346.9,203.9,347.8,204.7z"/>
			</g>
			<g>
				<path fill="#6DE0F6" d="M379.4,256.5l-1.8,1c-0.5,0.3-0.8,0-0.8-0.6v-25.4c0-0.6,0.4-1.3,0.8-1.6l1.8-1c0.5-0.3,0.8,0,0.8,0.6
					v25.4C380.2,255.5,379.9,256.3,379.4,256.5z"/>
				<path fill="#267FE5" d="M379.4,228.9l-0.4,0.3v24.9c0,0.6-0.4,1.3-0.8,1.6l-1.4,0.8v0.5c0,0.6,0.4,0.9,0.8,0.6l1.8-1
					c0.5-0.3,0.8-1,0.8-1.6v-25.4C380.2,228.9,379.9,228.6,379.4,228.9z"/>
				<path fill="#6DE0F6" d="M386.1,252.7l-1.8,1c-0.5,0.3-0.8,0-0.8-0.6v-25.4c0-0.6,0.4-1.3,0.8-1.6l1.8-1c0.5-0.3,0.8,0,0.8,0.6
					V251C386.9,251.7,386.5,252.4,386.1,252.7z"/>
				<path fill="#6DE0F6" d="M392.8,248.8l-1.8,1c-0.5,0.3-0.8,0-0.8-0.6v-25.4c0-0.6,0.4-1.3,0.8-1.6l1.8-1c0.5-0.3,0.8,0,0.8,0.6
					v25.4C393.6,247.8,393.2,248.5,392.8,248.8z"/>
				<path fill="#6DE0F6" d="M399.5,244.9l-1.8,1c-0.5,0.3-0.8,0-0.8-0.6V220c0-0.6,0.4-1.3,0.8-1.6l1.8-1c0.5-0.3,0.8,0,0.8,0.6
					v25.4C400.3,243.9,399.9,244.7,399.5,244.9z"/>
				<path fill="#267FE5" d="M386.1,225l-0.4,0.3v24.9c0,0.6-0.4,1.3-0.8,1.6l-1.4,0.8v0.5c0,0.6,0.4,0.9,0.8,0.6l1.8-1
					c0.5-0.3,0.8-1,0.8-1.6v-25.4C386.9,225.1,386.5,224.8,386.1,225z"/>
				<path fill="#267FE5" d="M392.8,221.2l-0.4,0.3v24.9c0,0.6-0.4,1.3-0.8,1.6l-1.4,0.8v0.5c0,0.6,0.4,0.9,0.8,0.6l1.8-1
					c0.5-0.3,0.8-1,0.8-1.6v-25.4C393.6,221.2,393.2,220.9,392.8,221.2z"/>
				<path fill="#267FE5" d="M399.5,217.3l-0.4,0.3v24.9c0,0.6-0.4,1.3-0.8,1.6l-1.4,0.8v0.5c0,0.6,0.4,0.9,0.8,0.6l1.8-1
					c0.5-0.3,0.8-1,0.8-1.6v-25.4C400.3,217.3,399.9,217,399.5,217.3z"/>
			</g>
			<path fill="#480689" d="M361.2,259.6c-0.2,0-0.4-0.1-0.7-0.2l-23.7-13.7c-0.8-0.5-1.5-1.7-1.5-2.8v-26.8c0-0.6,0.2-1.1,0.6-1.3
				c0.3-0.2,0.7-0.2,1.1,0.1l23.7,13.7c0.8,0.5,1.5,1.7,1.5,2.8v26.8c0,0.6-0.2,1.1-0.6,1.3C361.5,259.6,361.3,259.6,361.2,259.6z
				 M336.5,215.3c-0.1,0-0.1,0-0.2,0.1c-0.2,0.1-0.3,0.4-0.3,0.8V243c0,0.9,0.5,1.9,1.2,2.3l23.7,13.7c0.2,0.1,0.4,0.2,0.6,0.1
				c0.2-0.1,0.3-0.4,0.3-0.8v-26.8c0-0.9-0.5-1.9-1.2-2.3l-23.7-13.7C336.7,215.3,336.6,215.3,336.5,215.3z"/>
			<g>
				<path fill="#6DE0F6" d="M340,221.4c0,0.7-0.5,1-1.2,0.7c-0.6-0.4-1.2-1.3-1.2-2c0-0.7,0.5-1,1.2-0.7
					C339.5,219.8,340,220.7,340,221.4z"/>
				<path fill="#6DE0F6" d="M340,225.2c0,0.7-0.5,1-1.2,0.7c-0.6-0.4-1.2-1.3-1.2-2c0-0.7,0.5-1,1.2-0.7
					C339.5,223.5,340,224.4,340,225.2z"/>
				<path fill="#6DE0F6" d="M340,228.9c0,0.7-0.5,1-1.2,0.7c-0.6-0.4-1.2-1.3-1.2-2c0-0.7,0.5-1,1.2-0.7
					C339.5,227.3,340,228.2,340,228.9z"/>
				<path fill="#267FE5" d="M339.4,229.1c-0.6-0.4-1.2-1.3-1.2-2c0-0.1,0-0.3,0.1-0.4c-0.4,0-0.6,0.3-0.6,0.8c0,0.7,0.5,1.6,1.2,2
					c0.5,0.3,0.9,0.2,1.1-0.3C339.8,229.3,339.6,229.2,339.4,229.1z"/>
				<path fill="#267FE5" d="M339.4,225.4c-0.6-0.4-1.2-1.3-1.2-2c0-0.1,0-0.3,0.1-0.4c-0.4,0-0.6,0.3-0.6,0.8c0,0.7,0.5,1.6,1.2,2
					c0.5,0.3,0.9,0.2,1.1-0.3C339.8,225.5,339.6,225.5,339.4,225.4z"/>
				<path fill="#267FE5" d="M339.4,221.6c-0.6-0.4-1.2-1.3-1.2-2c0-0.1,0-0.3,0.1-0.4c-0.4,0-0.6,0.3-0.6,0.8c0,0.7,0.5,1.6,1.2,2
					c0.5,0.3,0.9,0.2,1.1-0.3C339.8,221.8,339.6,221.7,339.4,221.6z"/>
			</g>
			<path fill="#480689" d="M359,246.2l-0.8-0.4c-0.2-0.1-0.4-0.5-0.4-0.8v-3.7c0-0.3,0.2-0.5,0.4-0.3l0.8,0.4
				c0.2,0.1,0.4,0.5,0.4,0.8v3.7C359.5,246.2,359.3,246.4,359,246.2z"/>
		</g>
		<linearGradient id="SVGID_41_" gradientUnits="userSpaceOnUse" x1="368.1072" y1="212.5525" x2="368.1072" y2="112.0542">
			<stop  offset="1.075270e-02" style="stop-color:#25BFEC"/>
			<stop  offset="4.534507e-02" style="stop-color:#24B4E1"/>
			<stop  offset="0.2186" style="stop-color:#1F83B0"/>
			<stop  offset="0.3902" style="stop-color:#1B5A86"/>
			<stop  offset="0.5567" style="stop-color:#173A66"/>
			<stop  offset="0.7168" style="stop-color:#152350"/>
			<stop  offset="0.8678" style="stop-color:#131642"/>
			<stop  offset="1" style="stop-color:#13113D"/>
		</linearGradient>
		<path opacity="0.2" fill="url(#SVGID_41_)" d="M388.9,112.1h-41.6v88.6l0,0c0,0.5,0.3,0.9,0.8,1.2l17.7,10.2
			c1.3,0.7,3.4,0.6,4.9-0.2l17-9.8c0.8-0.4,1.2-1,1.2-1.5l0,0V112.1z"/>
		<linearGradient id="SVGID_42_" gradientUnits="userSpaceOnUse" x1="368.1072" y1="211.4554" x2="368.1072" y2="120.5011">
			<stop  offset="1.075270e-02" style="stop-color:#70E8FC"/>
			<stop  offset="0.1484" style="stop-color:#5AB5CF"/>
			<stop  offset="0.3028" style="stop-color:#4584A3"/>
			<stop  offset="0.4559" style="stop-color:#335A7E"/>
			<stop  offset="0.6045" style="stop-color:#253A62"/>
			<stop  offset="0.7474" style="stop-color:#1B244D"/>
			<stop  offset="0.882" style="stop-color:#151641"/>
			<stop  offset="1" style="stop-color:#13113D"/>
		</linearGradient>
		<path opacity="0.25" fill="url(#SVGID_42_)" d="M386.9,120.5h-37.6v80.2l0,0c0,0.4,0.3,0.8,0.8,1.1l16,9.2
			c1.1,0.7,3.1,0.6,4.4-0.2l15.3-8.9c0.7-0.4,1-0.9,1.1-1.4l0,0V120.5z"/>
		<g>
			<circle fill="#6DE0F6" cx="358.2" cy="193.2" r="1.5"/>
			<circle fill="#6DE0F6" cx="369.9" cy="182.8" r="2.6"/>
			<circle fill="#6DE0F6" cx="366.7" cy="181.2" r="0.7"/>
			<circle fill="#6DE0F6" cx="378.2" cy="167.9" r="1.3"/>
			<circle fill="#6DE0F6" cx="371.2" cy="156.7" r="0.9"/>
			<circle fill="#6DE0F6" cx="359.8" cy="149.5" r="1.7"/>
			<circle fill="#6DE0F6" cx="369.1" cy="137.5" r="3.4"/>
			<path fill="#6DE0F6" d="M365.7,135.4c0,0.5-0.4,0.9-0.9,0.9c-0.5,0-0.9-0.4-0.9-0.9c0-0.5,0.4-0.9,0.9-0.9
				C365.3,134.4,365.7,134.8,365.7,135.4z"/>
			<path fill="#6DE0F6" d="M373,141.6c0,0.6-0.5,1.1-1.1,1.1c-0.6,0-1.1-0.5-1.1-1.1c0-0.6,0.5-1.1,1.1-1.1
				C372.5,140.5,373,141,373,141.6z"/>
			<circle fill="#6DE0F6" cx="373.3" cy="139.3" r="0.5"/>
			<path fill="#6DE0F6" d="M380.8,127.8c0,0.9-0.7,1.6-1.6,1.6c-0.9,0-1.6-0.7-1.6-1.6c0-0.9,0.7-1.6,1.6-1.6
				C380.1,126.2,380.8,126.9,380.8,127.8z"/>
		</g>
	</g>
</g>
<g>
	<g>
		<g>
			<path opacity="0.6" fill="#0C0F38" d="M361.8,392.8L329.3,374c-2.3-1.3-2-3.7,0.6-5.2l31.2-18c2.7-1.5,6.7-1.7,9-0.4l32.5,18.8
				c2.3,1.3,2,3.7-0.6,5.2l-31.2,18C368.2,393.9,364.1,394.1,361.8,392.8z"/>
			<linearGradient id="SVGID_43_" gradientUnits="userSpaceOnUse" x1="361.9179" y1="345.6795" x2="370.1163" y2="397.4424">
				<stop  offset="0" style="stop-color:#6EE8FC"/>
				<stop  offset="0.2204" style="stop-color:#6EE8FC"/>
				<stop  offset="0.4892" style="stop-color:#6EE1F8"/>
				<stop  offset="0.7742" style="stop-color:#D4088C"/>
				<stop  offset="1" style="stop-color:#D4088C"/>
			</linearGradient>
			<path fill="url(#SVGID_43_)" d="M365.7,398c-1.8,0-3.5-0.4-4.8-1.1l-38.3-22.1c-1.3-0.8-2-1.8-2-3c0-1.4,1-2.8,2.8-3.8l36.8-21.2
				c3.2-1.9,8.2-2.1,11-0.4l38.3,22.1c1.3,0.8,2,1.8,2,3c0,1.4-1,2.8-2.8,3.8l-36.8,21.2C370.1,397.4,367.9,398,365.7,398z
				 M366.3,345.9c-2,0-4.2,0.5-5.8,1.5l-36.8,21.2c-1.5,0.9-2.4,2-2.4,3.1c0,0.9,0.6,1.7,1.6,2.3l38.3,22.1
				c2.6,1.5,7.2,1.3,10.2-0.4l36.8-21.2c1.5-0.9,2.4-2,2.4-3.1c0-0.9-0.6-1.7-1.6-2.3l-38.3-22.1C369.6,346.2,368,345.9,366.3,345.9
				z"/>
			<linearGradient id="SVGID_44_" gradientUnits="userSpaceOnUse" x1="320.5008" y1="363.339" x2="413.7702" y2="363.339">
				<stop  offset="0" style="stop-color:#A31FA9"/>
				<stop  offset="6.679147e-02" style="stop-color:#8B17A0"/>
				<stop  offset="0.1494" style="stop-color:#740F98"/>
				<stop  offset="0.2393" style="stop-color:#640A92"/>
				<stop  offset="0.3408" style="stop-color:#5B078F"/>
				<stop  offset="0.4785" style="stop-color:#58068E"/>
				<stop  offset="0.6264" style="stop-color:#4D22A3"/>
				<stop  offset="0.9436" style="stop-color:#3168DA"/>
				<stop  offset="1" style="stop-color:#2C75E4"/>
			</linearGradient>
			<path fill="url(#SVGID_44_)" d="M404.3,352.5h-16.1l-18-10.4c-2.3-1.3-6.4-1.2-9,0.4l-17.3,10h-16.1v10.8h0
				c-0.1,0.9,0.4,1.8,1.5,2.4l32.5,18.8c2.3,1.3,6.4,1.2,9-0.4l31.2-18c1.4-0.8,2.1-1.8,2.2-2.8h0V352.5z"/>
			<linearGradient id="SVGID_45_" gradientUnits="userSpaceOnUse" x1="320.5008" y1="374.0158" x2="413.7704" y2="374.0158">
				<stop  offset="0" style="stop-color:#D4088C"/>
				<stop  offset="0.2258" style="stop-color:#D4088C"/>
				<stop  offset="0.5108" style="stop-color:#6EE1F8"/>
				<stop  offset="0.7796" style="stop-color:#6EE8FC"/>
				<stop  offset="1" style="stop-color:#6EE8FC"/>
			</linearGradient>
			<path fill="url(#SVGID_45_)" d="M402.1,365.4l-31.2,18c-2.7,1.5-6.7,1.7-9,0.4L329.3,365c-1.1-0.6-1.6-1.5-1.5-2.4h0v0.7h0
				c-0.1,0.9,0.4,1.8,1.5,2.4l32.5,18.8c2.3,1.3,6.4,1.2,9-0.4l31.2-18c1.4-0.8,2.1-1.8,2.2-2.8h0v-0.7h0
				C404.2,363.6,403.5,364.6,402.1,365.4z"/>
			<path fill="#D4088C" d="M328.8,364.1L328.8,364.1l0-10.8h16.1l17.3-10c2.7-1.5,6.7-1.7,9-0.4l18,10.4h15.1v-0.7h-16.1l-18-10.4
				c-2.3-1.3-6.4-1.2-9,0.4l-17.3,10h-16.1v10.8h0c-0.1,0.9,0.4,1.8,1.5,2.4l0.2,0.1C329,365.3,328.7,364.7,328.8,364.1z"/>
			<path fill="#6EE8FC" d="M403.4,353.4v10.8h0c0,0.6-0.3,1.1-0.8,1.7c1.1-0.7,1.6-1.6,1.7-2.5h0v-10.7
				C404,352.8,403.7,353.1,403.4,353.4z"/>
			
				<linearGradient id="SVGID_46_" gradientUnits="userSpaceOnUse" x1="756.7224" y1="853.2089" x2="800.7178" y2="815.1077" gradientTransform="matrix(0.866 0.5 -1 0.5774 525.0016 -518.4943)">
				<stop  offset="0" style="stop-color:#8D139B"/>
				<stop  offset="0.1651" style="stop-color:#851BA1"/>
				<stop  offset="0.4284" style="stop-color:#6E33B2"/>
				<stop  offset="0.7551" style="stop-color:#4958CD"/>
				<stop  offset="1" style="stop-color:#2979E4"/>
			</linearGradient>
			<path fill="url(#SVGID_46_)" d="M361.8,373.7l-32.5-18.8c-2.3-1.3-2-3.7,0.6-5.2l31.2-18c2.7-1.5,6.7-1.7,9-0.4l32.5,18.8
				c2.3,1.3,2,3.7-0.6,5.2l-31.2,18C368.2,374.9,364.1,375,361.8,373.7z"/>
			<path fill="#6EE8FC" d="M402.7,350.1l-32.5-18.8c-1.2-0.7-2.9-1-4.6-0.9c1.2,0.1,2.4,0.4,3.3,0.9l32.5,18.8
				c2.3,1.3,2,3.7-0.6,5.2l-31.2,18c-1.3,0.7-2.9,1.2-4.5,1.3c2,0.1,4.1-0.3,5.7-1.3l31.2-18C404.8,353.8,405,351.4,402.7,350.1z"/>
			
				<linearGradient id="SVGID_47_" gradientUnits="userSpaceOnUse" x1="762.4612" y1="848.2389" x2="795.2157" y2="819.8727" gradientTransform="matrix(0.866 0.5 -1 0.5774 525.0016 -518.4943)">
				<stop  offset="0" style="stop-color:#630692"/>
				<stop  offset="0.2262" style="stop-color:#5B0E94"/>
				<stop  offset="0.587" style="stop-color:#432399"/>
				<stop  offset="1" style="stop-color:#2142A1"/>
			</linearGradient>
			<path fill="url(#SVGID_47_)" d="M362.9,368.3l-24.2-14c-1.7-1-1.5-2.7,0.5-3.9l23.3-13.4c2-1.1,5-1.3,6.7-0.3l24.2,14
				c1.7,1,1.5,2.7-0.5,3.9L369.6,368C367.6,369.2,364.6,369.3,362.9,368.3z"/>
			<path fill="#6DE0F6" d="M363.8,363.9l-17.5-10.1c-1.2-0.7-1.1-2,0.3-2.8l16.8-9.7c1.4-0.8,3.6-0.9,4.9-0.2l17.5,10.1
				c1.2,0.7,1.1,2-0.3,2.8l-16.8,9.7C367.2,364.6,365,364.7,363.8,363.9z"/>
			<path fill="#D4088C" d="M363.3,373.7l-32.5-18.8c-2.3-1.3-2-3.7,0.6-5.2l31.2-18c1.3-0.7,2.8-1.2,4.4-1.2c-2-0.1-4.2,0.3-5.9,1.2
				l-31.2,18c-2.7,1.5-3,3.9-0.6,5.2l32.5,18.8c1.2,0.7,2.9,1,4.6,0.9C365.3,374.5,364.2,374.2,363.3,373.7z"/>
			<g>
				<defs>
					<path id="SVGID_48_" d="M363.8,363.9l-17.5-10.1c-1.2-0.7-1.1-2,0.3-2.8l16.8-9.7c1.4-0.8,3.6-0.9,4.9-0.2l17.5,10.1
						c1.2,0.7,1.1,2-0.3,2.8l-16.8,9.7C367.2,364.6,365,364.7,363.8,363.9z"/>
				</defs>
				<clipPath id="SVGID_49_">
					<use xlink:href="#SVGID_48_"  overflow="visible"/>
				</clipPath>
				<path clip-path="url(#SVGID_49_)" fill="#267FE5" d="M346.6,352.4l16.9-9.7c1.4-0.8,3.6-0.9,4.9-0.2l17.6,10.1
					c0.3,0.2,0.5,0.3,0.6,0.6c0.4-0.7,0.2-1.4-0.6-1.9l-17.6-10.1c-1.2-0.7-3.4-0.6-4.9,0.2l-16.9,9.7c-1.1,0.6-1.5,1.6-1,2.3
					C345.8,352.9,346.1,352.6,346.6,352.4z"/>
				<path clip-path="url(#SVGID_49_)" fill="#25BFEC" d="M346.6,354l16.9-9.7c1.4-0.8,3.6-0.9,4.9-0.2l17.6,10.1
					c0.2,0.1,0.4,0.3,0.5,0.4c0.6-0.7,0.4-1.6-0.5-2.1l-17.6-10.1c-1.2-0.7-3.4-0.6-4.9,0.2l-16.9,9.7c-1.2,0.7-1.5,1.7-0.9,2.4
					C345.9,354.5,346.2,354.2,346.6,354z"/>
				<path clip-path="url(#SVGID_49_)" fill="#18D0F7" d="M345.9,356.6c0.2-0.2,0.4-0.4,0.7-0.5l16.9-9.7c1.4-0.8,3.6-0.9,4.9-0.2
					l17.6,10.1c0.1,0.1,0.2,0.2,0.3,0.3c0.7-0.8,0.7-1.7-0.3-2.3l-17.6-10.1c-1.2-0.7-3.4-0.6-4.9,0.2l-16.9,9.7
					C345.3,354.8,345,355.9,345.9,356.6z"/>
			</g>
		</g>
		<linearGradient id="SVGID_50_" gradientUnits="userSpaceOnUse" x1="366.0173" y1="364.4293" x2="366.0173" y2="323.1609">
			<stop  offset="1.075270e-02" style="stop-color:#25BFEC"/>
			<stop  offset="4.534507e-02" style="stop-color:#24B4E1"/>
			<stop  offset="0.2186" style="stop-color:#1F83B0"/>
			<stop  offset="0.3902" style="stop-color:#1B5A86"/>
			<stop  offset="0.5567" style="stop-color:#173A66"/>
			<stop  offset="0.7168" style="stop-color:#152350"/>
			<stop  offset="0.8678" style="stop-color:#131642"/>
			<stop  offset="1" style="stop-color:#13113D"/>
		</linearGradient>
		<path opacity="0.4" fill="url(#SVGID_50_)" d="M386.7,323.2h-41.3v29.4l0,0c0,0.5,0.3,0.9,0.8,1.2l17.5,10.1
			c1.2,0.7,3.4,0.6,4.9-0.2l16.8-9.7c0.7-0.4,1.1-1,1.2-1.5l0,0V323.2z"/>
	</g>
</g>
<g>
	<g>
		<g>
			<path opacity="0.6" fill="#0C0F38" d="M218.7,168.7L186.1,150c-2.3-1.3-2-3.7,0.6-5.2l31.2-18c2.7-1.5,6.7-1.7,9-0.4l32.5,18.8
				c2.3,1.3,2,3.7-0.6,5.2l-31.2,18C225,169.9,221,170.1,218.7,168.7z"/>
			<linearGradient id="SVGID_51_" gradientUnits="userSpaceOnUse" x1="218.752" y1="121.6636" x2="226.9505" y2="173.4266">
				<stop  offset="0" style="stop-color:#6EE8FC"/>
				<stop  offset="0.2204" style="stop-color:#6EE8FC"/>
				<stop  offset="0.4892" style="stop-color:#6EE1F8"/>
				<stop  offset="0.7742" style="stop-color:#D4088C"/>
				<stop  offset="1" style="stop-color:#D4088C"/>
			</linearGradient>
			<path fill="url(#SVGID_51_)" d="M222.5,174c-1.8,0-3.5-0.4-4.8-1.1h0l-38.3-22.1c-1.3-0.8-2-1.8-2-3c0-1.4,1-2.8,2.8-3.8
				l36.8-21.2c3.2-1.9,8.2-2.1,11-0.4l38.3,22.1c1.3,0.8,2,1.8,2,3c0,1.4-1,2.8-2.8,3.8l-36.8,21.2C227,173.4,224.7,174,222.5,174z
				 M218.1,172.2c2.6,1.5,7.2,1.3,10.2-0.4l36.8-21.2c1.5-0.9,2.4-2,2.4-3.1c0-0.9-0.6-1.7-1.6-2.3l-38.3-22.1
				c-2.6-1.5-7.2-1.3-10.2,0.4l-36.8,21.2c-1.5,0.9-2.4,2-2.4,3.1c0,0.9,0.6,1.7,1.6,2.3L218.1,172.2L218.1,172.2z"/>
			<linearGradient id="SVGID_52_" gradientUnits="userSpaceOnUse" x1="177.3347" y1="139.3238" x2="270.6042" y2="139.3238">
				<stop  offset="0" style="stop-color:#A31FA9"/>
				<stop  offset="6.679147e-02" style="stop-color:#8B17A0"/>
				<stop  offset="0.1494" style="stop-color:#740F98"/>
				<stop  offset="0.2393" style="stop-color:#640A92"/>
				<stop  offset="0.3408" style="stop-color:#5B078F"/>
				<stop  offset="0.4785" style="stop-color:#58068E"/>
				<stop  offset="0.6264" style="stop-color:#4D22A3"/>
				<stop  offset="0.9436" style="stop-color:#3168DA"/>
				<stop  offset="1" style="stop-color:#2C75E4"/>
			</linearGradient>
			<path fill="url(#SVGID_52_)" d="M261.1,128.5H245l-18-10.4c-2.3-1.3-6.4-1.2-9,0.4l-17.3,10h-16.1v10.8h0
				c-0.1,0.9,0.4,1.8,1.5,2.4l32.5,18.8c2.3,1.3,6.4,1.2,9-0.4l31.2-18c1.4-0.8,2.1-1.8,2.2-2.8h0V128.5z"/>
			<linearGradient id="SVGID_53_" gradientUnits="userSpaceOnUse" x1="177.3347" y1="150.0006" x2="270.6042" y2="150.0006">
				<stop  offset="0" style="stop-color:#D4088C"/>
				<stop  offset="0.2258" style="stop-color:#D4088C"/>
				<stop  offset="0.5108" style="stop-color:#6EE1F8"/>
				<stop  offset="0.7796" style="stop-color:#6EE8FC"/>
				<stop  offset="1" style="stop-color:#6EE8FC"/>
			</linearGradient>
			<path fill="url(#SVGID_53_)" d="M258.9,141.4l-31.2,18c-2.7,1.5-6.7,1.7-9,0.4L186.1,141c-1.1-0.6-1.6-1.5-1.5-2.4h0v0.7h0
				c-0.1,0.9,0.4,1.8,1.5,2.4l32.5,18.8c2.3,1.3,6.4,1.2,9-0.4l31.2-18c1.4-0.8,2.1-1.8,2.2-2.8h0v-0.7h0
				C261,139.6,260.3,140.6,258.9,141.4z"/>
			<path fill="#D4088C" d="M185.6,140.1L185.6,140.1l0-10.8h16.1l17.3-10c2.7-1.5,6.7-1.7,9-0.4l18,10.4h15.1v-0.7H245l-18-10.4
				c-2.3-1.3-6.4-1.2-9,0.4l-17.3,10h-16.1v10.8h0c-0.1,0.9,0.4,1.8,1.5,2.4l0.2,0.1C185.8,141.3,185.6,140.7,185.6,140.1z"/>
			<path fill="#6EE8FC" d="M260.2,129.4v10.8h0c0,0.6-0.3,1.1-0.8,1.7c1.1-0.7,1.6-1.6,1.7-2.5h0v-10.7
				C260.8,128.8,260.5,129.1,260.2,129.4z"/>
			
				<linearGradient id="SVGID_54_" gradientUnits="userSpaceOnUse" x1="450.0518" y1="730.7983" x2="494.0471" y2="692.6971" gradientTransform="matrix(0.866 0.5 -1 0.5774 525.0016 -518.4943)">
				<stop  offset="0" style="stop-color:#8D139B"/>
				<stop  offset="0.1651" style="stop-color:#851BA1"/>
				<stop  offset="0.4284" style="stop-color:#6E33B2"/>
				<stop  offset="0.7551" style="stop-color:#4958CD"/>
				<stop  offset="1" style="stop-color:#2979E4"/>
			</linearGradient>
			<path fill="url(#SVGID_54_)" d="M218.7,149.7l-32.5-18.8c-2.3-1.3-2-3.7,0.6-5.2l31.2-18c2.7-1.5,6.7-1.7,9-0.4l32.5,18.8
				c2.3,1.3,2,3.7-0.6,5.2l-31.2,18C225,150.9,221,151,218.7,149.7z"/>
			<path fill="#6EE8FC" d="M259.6,126.1L227,107.3c-1.2-0.7-2.9-1-4.6-0.9c1.2,0.1,2.4,0.4,3.3,0.9l32.5,18.8c2.3,1.3,2,3.7-0.6,5.2
				l-31.2,18c-1.3,0.7-2.9,1.2-4.5,1.3c2,0.1,4.1-0.3,5.7-1.3l31.2-18C261.6,129.7,261.9,127.4,259.6,126.1z"/>
			
				<linearGradient id="SVGID_55_" gradientUnits="userSpaceOnUse" x1="455.7906" y1="725.8282" x2="488.545" y2="697.462" gradientTransform="matrix(0.866 0.5 -1 0.5774 525.0016 -518.4943)">
				<stop  offset="0" style="stop-color:#630692"/>
				<stop  offset="0.2262" style="stop-color:#5B0E94"/>
				<stop  offset="0.587" style="stop-color:#432399"/>
				<stop  offset="1" style="stop-color:#2142A1"/>
			</linearGradient>
			<path fill="url(#SVGID_55_)" d="M219.7,144.3l-24.2-14c-1.7-1-1.5-2.7,0.5-3.9l23.3-13.4c2-1.1,5-1.3,6.7-0.3l24.2,14
				c1.7,1,1.5,2.7-0.5,3.9L226.5,144C224.5,145.1,221.5,145.3,219.7,144.3z"/>
			<path fill="#6DE0F6" d="M220.6,139.9L203,129.8c-1.2-0.7-1.1-2,0.3-2.8l16.8-9.7c1.4-0.8,3.6-0.9,4.9-0.2l17.5,10.1
				c1.2,0.7,1.1,2-0.3,2.8l-16.8,9.7C224,140.6,221.8,140.6,220.6,139.9z"/>
			<path fill="#D4088C" d="M220.1,149.7l-32.5-18.8c-2.3-1.3-2-3.7,0.6-5.2l31.2-18c1.3-0.7,2.8-1.2,4.4-1.2c-2-0.1-4.2,0.3-5.9,1.2
				l-31.2,18c-2.7,1.5-3,3.9-0.6,5.2l32.5,18.8c1.2,0.7,2.9,1,4.6,0.9C222.1,150.5,221,150.2,220.1,149.7z"/>
			<g>
				<defs>
					<path id="SVGID_56_" d="M220.6,139.9L203,129.8c-1.2-0.7-1.1-2,0.3-2.8l16.8-9.7c1.4-0.8,3.6-0.9,4.9-0.2l17.5,10.1
						c1.2,0.7,1.1,2-0.3,2.8l-16.8,9.7C224,140.6,221.8,140.6,220.6,139.9z"/>
				</defs>
				<clipPath id="SVGID_57_">
					<use xlink:href="#SVGID_56_"  overflow="visible"/>
				</clipPath>
				<path clip-path="url(#SVGID_57_)" fill="#267FE5" d="M203.4,128.4l16.9-9.7c1.4-0.8,3.6-0.9,4.9-0.2l17.6,10.1
					c0.3,0.2,0.5,0.3,0.6,0.6c0.4-0.7,0.2-1.4-0.6-1.9l-17.6-10.1c-1.2-0.7-3.4-0.6-4.9,0.2l-16.9,9.7c-1.1,0.6-1.5,1.6-1,2.3
					C202.6,128.9,202.9,128.6,203.4,128.4z"/>
				<path clip-path="url(#SVGID_57_)" fill="#25BFEC" d="M203.4,130l16.9-9.7c1.4-0.8,3.6-0.9,4.9-0.2l17.6,10.1
					c0.2,0.1,0.4,0.3,0.5,0.4c0.6-0.7,0.4-1.6-0.5-2.1l-17.6-10.1c-1.2-0.7-3.4-0.6-4.9,0.2l-16.9,9.7c-1.2,0.7-1.5,1.7-0.9,2.4
					C202.7,130.5,203,130.2,203.4,130z"/>
				<path clip-path="url(#SVGID_57_)" fill="#18D0F7" d="M202.7,132.6c0.2-0.2,0.4-0.4,0.7-0.5l16.9-9.7c1.4-0.8,3.6-0.9,4.9-0.2
					l17.6,10.1c0.1,0.1,0.2,0.2,0.3,0.3c0.7-0.8,0.7-1.7-0.3-2.3l-17.6-10.1c-1.2-0.7-3.4-0.6-4.9,0.2l-16.9,9.7
					C202.1,130.8,201.8,131.8,202.7,132.6z"/>
			</g>
		</g>
		<linearGradient id="SVGID_58_" gradientUnits="userSpaceOnUse" x1="222.8512" y1="140.4141" x2="222.8512" y2="99.1457">
			<stop  offset="1.075270e-02" style="stop-color:#25BFEC"/>
			<stop  offset="4.534507e-02" style="stop-color:#24B4E1"/>
			<stop  offset="0.2186" style="stop-color:#1F83B0"/>
			<stop  offset="0.3902" style="stop-color:#1B5A86"/>
			<stop  offset="0.5567" style="stop-color:#173A66"/>
			<stop  offset="0.7168" style="stop-color:#152350"/>
			<stop  offset="0.8678" style="stop-color:#131642"/>
			<stop  offset="1" style="stop-color:#13113D"/>
		</linearGradient>
		<path opacity="0.4" fill="url(#SVGID_58_)" d="M243.5,99.1h-41.3v29.4l0,0c0,0.5,0.3,0.9,0.8,1.2l17.5,10.1
			c1.2,0.7,3.4,0.6,4.9-0.2l16.8-9.7c0.7-0.4,1.1-1,1.2-1.5l0,0V99.1z"/>
	</g>
</g>
<path opacity="0.6" fill="#0C0F38" d="M145.6,225.2l-39.3-22.7c-4.5-2.6-3.9-7.2,1.3-10.2v0c5.2-3,13.1-3.3,17.6-0.7l39.3,22.7
	c4.5,2.6,3.9,7.2-1.3,10.2l0,0C158,227.5,150.1,227.8,145.6,225.2z"/>
<linearGradient id="SVGID_59_" gradientUnits="userSpaceOnUse" x1="98.8716" y1="208.4136" x2="171.8286" y2="208.4136">
	<stop  offset="0" style="stop-color:#6EE8FC"/>
	<stop  offset="0.2204" style="stop-color:#6EE8FC"/>
	<stop  offset="0.4892" style="stop-color:#6EE1F8"/>
	<stop  offset="0.7742" style="stop-color:#D4088C"/>
	<stop  offset="1" style="stop-color:#D4088C"/>
</linearGradient>
<path fill="url(#SVGID_59_)" d="M155.4,229.6c-3.3,0-6.4-0.7-8.8-2l-44.1-25.5c-2.3-1.3-3.6-3.2-3.6-5.3c0-2.5,1.8-4.9,5-6.8
	c6-3.4,15-3.8,20.2-0.8l44.1,25.5c2.3,1.3,3.6,3.2,3.6,5.3c0,2.5-1.8,4.9-5,6.8C163.5,228.7,159.4,229.6,155.4,229.6z M115.3,188
	c-3.8,0-7.9,0.9-11,2.7c-3,1.7-4.7,3.9-4.7,6.1c0,1.8,1.1,3.4,3.2,4.6l44.1,25.5c5,2.9,13.7,2.5,19.4-0.8c3-1.7,4.7-3.9,4.7-6.1
	c0-1.8-1.1-3.4-3.2-4.6l-44.1-25.5C121.4,188.6,118.4,188,115.3,188z"/>
<g class="aaa">
	<path fill="#4A0E91" d="M162.5,214.7l-5.2-1l-48.5-28.1l-5.1-4.7l-5.1-7.4l-2.7-7.7l-0.7-6.4l1.2-4.9l2.9-3.9l4.1-1l21-11.4
		c0,0,24.5,16.8,25.5,17.2c1,0.4,16.8,32.9,16.8,32.9l3.5,21.9l-3.9,3.6L162.5,214.7z"/>
	<linearGradient id="SVGID_60_" gradientUnits="userSpaceOnUse" x1="131.8222" y1="140.9969" x2="168.0744" y2="213.9715">
		<stop  offset="0" style="stop-color:#A31FA9"/>
		<stop  offset="6.679147e-02" style="stop-color:#8B17A0"/>
		<stop  offset="0.1494" style="stop-color:#740F98"/>
		<stop  offset="0.2393" style="stop-color:#640A92"/>
		<stop  offset="0.3408" style="stop-color:#5B078F"/>
		<stop  offset="0.4785" style="stop-color:#58068E"/>
		<stop  offset="0.6264" style="stop-color:#4D22A3"/>
		<stop  offset="0.9436" style="stop-color:#3168DA"/>
		<stop  offset="1" style="stop-color:#2C75E4"/>
	</linearGradient>
	<path fill="url(#SVGID_60_)" d="M191.8,193.3c0-8.4-5.9-18.6-13.2-22.8c-1.8-1-3.5-1.6-5-1.7c-0.7-7.5-6-16.1-12.4-19.8
		c-0.9-0.5-1.7-0.9-2.6-1.2c-1.9-6.2-6.3-12.2-11.4-15.2c-3.6-2.1-6.8-2.2-9.1-0.7l0,0L129,137c-2.4-0.6-4.6-0.4-6.4,0.5l0,0
		l-0.2,0.1c0,0,0,0,0,0L99.6,150l5.8-0.1l7.1,2.7l0.5-4.6l2.8-3.2l2.4-1l0.9-0.1l3.6,1.3c0.1-0.5,0.9-0.3,1.2-0.3
		c1.8,1.1,2.9,2.9,4.4,4c4.4,2.9,4.4,9.6,8,12.2c5.8,4.4,11.3,10.5,14.2,17c0.2,0.4,0,0.6-0.3,0.9l0.6,3.3l5.1,1.4l4.9,3.9l4.4,5.6
		l1.5,3.4l1.7,4.7l0.4,4.7l-0.4,3.6l-3.2,5.2l22.3-12.7l0,0l-0.2,0.1C190.1,200.8,191.8,197.7,191.8,193.3z"/>
	<g>
		<path fill="#D4088C" d="M125.4,136.7c-1,0.1-1.9,0.4-2.7,0.8l0,0l-0.2,0.1c0,0,0,0,0,0L99.6,150l1.3,0c0.5-0.4,1-0.9,1.5-0.8
			l22.4-12.1c0,0,0,0,0,0l0.2-0.1l0,0C125.1,136.8,125.2,136.8,125.4,136.7z"/>
	</g>
	<g>
		<path fill="#6EE8FC" d="M191.8,193.3c0-8.4-5.9-18.6-13.2-22.8c-0.4-0.2-0.7-0.4-1.1-0.6c7.4,4.3,13.3,14.6,13.3,23.1
			c0,4.6-1.7,7.7-4.4,8.9l0.2-0.1l0,0l-20.8,11.9l-0.6,0.9l22.3-12.7l0,0l-0.2,0.1C190.1,200.8,191.8,197.7,191.8,193.3z"/>
	</g>
	<path fill="#35047C" d="M150.6,177.8c-2.9-6.6-7.5-14.8-14.8-17.1c-1.1-3.3-3-9.2-7.4-12.1c-1.5-1.1-2.6-2.9-4.4-4
		c-0.3,0-1.1-0.2-1.2,0.3l0.1,0c0,9.9,7,21.9,15.5,26.8l11.8,6.8l0,0.1C150.6,178.5,150.8,178.2,150.6,177.8z"/>
	<linearGradient id="SVGID_61_" gradientUnits="userSpaceOnUse" x1="62.2934" y1="141.896" x2="190.8445" y2="203.3214">
		<stop  offset="0" style="stop-color:#A31FA9"/>
		<stop  offset="6.679147e-02" style="stop-color:#8B17A0"/>
		<stop  offset="0.1494" style="stop-color:#740F98"/>
		<stop  offset="0.2393" style="stop-color:#640A92"/>
		<stop  offset="0.3408" style="stop-color:#5B078F"/>
		<stop  offset="0.4785" style="stop-color:#58068E"/>
		<stop  offset="0.6264" style="stop-color:#4D22A3"/>
		<stop  offset="0.9436" style="stop-color:#3168DA"/>
		<stop  offset="1" style="stop-color:#2C75E4"/>
	</linearGradient>
	<path fill="url(#SVGID_61_)" d="M156.3,183c-1.8-1-3.5-1.6-5-1.8c-0.8-7.6-6-16.2-12.4-19.9c-0.9-0.5-1.7-0.9-2.6-1.2
		c-1.9-6.2-6.3-12.3-11.5-15.3c-6.9-4-12.5-0.8-12.5,7.2c-0.5-0.4-1.1-0.7-1.6-1c-8.6-5-15.7-0.9-15.7,9c0,10,7,22.1,15.7,27.1
		l45.7,26.4c7.3,4.2,13.2,0.8,13.2-7.6C169.5,197.5,163.6,187.2,156.3,183z"/>
	<g>
		<path fill="#6EE8FC" d="M156.3,183c-0.4-0.2-0.8-0.4-1.2-0.6c7.3,4.2,13.5,15.1,13.5,23.6c0,5.7-2.7,9.2-6.8,9.4
			c4.6,0.2,7.7-3.3,7.7-9.4C169.5,197.5,163.6,187.2,156.3,183z"/>
	</g>
	<g>
		<path fill="#D4088C" d="M95.6,160.4c0-8,4.5-12.2,10.7-11.1c-6.5-1.6-11.3,2.6-11.3,10.8c0,8.9,5.6,19.6,13,25.3
			C100.9,179.5,95.6,169.2,95.6,160.4z"/>
	</g>
</g>
<g>
	<path fill="#6DE0F6" d="M120.5,174.6c0,2.2-1.5,3.1-3.4,2c-1.9-1.1-3.4-3.7-3.4-5.9c0-2.2,1.5-3.1,3.4-2
		C119,169.8,120.5,172.4,120.5,174.6z"/>
	<path fill="#267FE5" d="M118.8,175.7c-1.9-1.1-3.4-3.7-3.4-5.9c0-0.7,0.2-1.2,0.4-1.6c-1.2-0.1-2.1,0.8-2.1,2.4
		c0,2.2,1.5,4.8,3.4,5.9c1.3,0.8,2.4,0.5,3-0.4C119.7,176.2,119.3,176,118.8,175.7z"/>
	<path fill="#6DE0F6" d="M131,180.7c0,2.2-1.5,3.1-3.4,2c-1.9-1.1-3.4-3.7-3.4-5.9c0-2.2,1.5-3.1,3.4-2
		C129.5,175.8,131,178.5,131,180.7z"/>
	<path fill="#6DE0F6" d="M141.5,186.7c0,2.2-1.5,3.1-3.4,2c-1.9-1.1-3.4-3.7-3.4-5.9s1.5-3.1,3.4-2
		C139.9,181.9,141.5,184.5,141.5,186.7z"/>
	<path fill="#267FE5" d="M129.3,181.8c-1.9-1.1-3.4-3.7-3.4-5.9c0-0.7,0.2-1.2,0.4-1.6c-1.2-0.1-2.1,0.8-2.1,2.4
		c0,2.2,1.5,4.8,3.4,5.9c1.3,0.8,2.4,0.5,3-0.4C130.2,182.2,129.7,182.1,129.3,181.8z"/>
	<path fill="#267FE5" d="M139.7,187.8c-1.9-1.1-3.4-3.7-3.4-5.9c0-0.7,0.2-1.2,0.4-1.6c-1.2-0.1-2.1,0.8-2.1,2.4
		c0,2.2,1.5,4.8,3.4,5.9c1.3,0.8,2.4,0.5,3-0.4C140.7,188.3,140.2,188.1,139.7,187.8z"/>
</g>
</svg>
